<?xml version="1.0" encoding="UTF-8" standalone="no"?>
<!DOCTYPE svg PUBLIC "-//W3C//DTD SVG 1.1//EN"
 "http://www.w3.org/Graphics/SVG/1.1/DTD/svg11.dtd">
<!-- Generated by graphviz version 2.43.0 (0)
 -->
<!-- Title: G Pages: 1 -->
<svg width="395pt" height="447pt"
 viewBox="0.00 0.00 395.44 447.43" xmlns="http://www.w3.org/2000/svg" xmlns:xlink="http://www.w3.org/1999/xlink">
<g id="graph0" class="graph" transform="scale(1 1) rotate(0) translate(4 443.43)">
<title>G</title><style>.edge>path:hover{stroke-width:8}</style>
<polygon fill="white" stroke="transparent" points="-4,4 -4,-443.43 391.44,-443.43 391.44,4 -4,4"/>
<!-- app_aws -->
<g id="node1" class="node">
<title>app_aws</title><style>.edge>path:hover{stroke-width:8}</style>
<ellipse fill="#ce3b3b" stroke="black" cx="274.44" cy="-234" rx="33.61" ry="18"/>
<text text-anchor="middle" x="274.44" y="-231.5" font-family="Helvetica,sans-Serif" font-size="10.00" fill="#ffffff">app.aws</text>
</g>
<!-- app_background -->
<g id="node4" class="node">
<title>app_background</title><style>.edge>path:hover{stroke-width:8}</style>
<ellipse fill="#993333" stroke="black" cx="156.44" cy="-162" rx="55.85" ry="18"/>
<text text-anchor="middle" x="156.44" y="-159.5" font-family="Helvetica,sans-Serif" font-size="10.00" fill="#ffffff">app.background</text>
</g>
<!-- app_aws&#45;&gt;app_background -->
<g id="edge1" class="edge">
<title>app_aws&#45;&gt;app_background</title><style>.edge>path:hover{stroke-width:8}</style>
<path fill="none" stroke="black" d="M252.8,-220.16C235.49,-209.89 210.89,-195.3 190.88,-183.43"/>
<polygon fill="#ce3b3b" stroke="black" points="192.44,-180.29 182.05,-178.19 188.87,-186.31 192.44,-180.29"/>
</g>
<!-- app_endpoints -->
<g id="node6" class="node">
<title>app_endpoints</title><style>.edge>path:hover{stroke-width:8}</style>
<ellipse fill="#913030" stroke="black" cx="240.44" cy="-90" rx="50.75" ry="18"/>
<text text-anchor="middle" x="240.44" y="-87.5" font-family="Helvetica,sans-Serif" font-size="10.00" fill="#ffffff">app.endpoints</text>
</g>
<!-- app_aws&#45;&gt;app_endpoints -->
<g id="edge2" class="edge">
<title>app_aws&#45;&gt;app_endpoints</title><style>.edge>path:hover{stroke-width:8}</style>
<path fill="none" stroke="black" d="M266.27,-216.34C259.34,-202.18 249.17,-181.29 240.44,-163"/>
<path fill="none" stroke="black" d="M240.44,-161C234.16,-147.85 233.77,-131.65 235.12,-118.15"/>
<polygon fill="#ce3b3b" stroke="black" points="238.62,-118.4 236.5,-108.02 231.68,-117.45 238.62,-118.4"/>
</g>
<!-- app_aws_ec2 -->
<g id="node2" class="node">
<title>app_aws_ec2</title><style>.edge>path:hover{stroke-width:8}</style>
<ellipse fill="#bc2f2f" stroke="black" cx="112.44" cy="-306" rx="45.15" ry="18"/>
<text text-anchor="middle" x="112.44" y="-303.5" font-family="Helvetica,sans-Serif" font-size="10.00" fill="#ffffff">app.aws.ec2</text>
</g>
<!-- app_aws_ec2&#45;&gt;app_background -->
<g id="edge3" class="edge">
<title>app_aws_ec2&#45;&gt;app_background</title><style>.edge>path:hover{stroke-width:8}</style>
<path fill="none" stroke="black" d="M105.44,-233C105.69,-215.07 116.77,-198.66 128.54,-186.24"/>
<polygon fill="#bc2f2f" stroke="black" points="131.18,-188.54 135.87,-179.04 126.28,-183.55 131.18,-188.54"/>
</g>
<!-- app_aws_ec2&#45;&gt;app_endpoints -->
<g id="edge4" class="edge">
<title>app_aws_ec2&#45;&gt;app_endpoints</title><style>.edge>path:hover{stroke-width:8}</style>
<path fill="none" stroke="black" d="M109.62,-287.79C107.57,-273.65 105.19,-253.07 105.44,-235"/>
<path fill="none" stroke="black" d="M105.44,-233C105.91,-198.61 53.51,-191.71 72.44,-163"/>
</g>
<!-- app_aws_ses -->
<g id="node3" class="node">
<title>app_aws_ses</title><style>.edge>path:hover{stroke-width:8}</style>
<ellipse fill="#b83d3d" stroke="black" cx="285.44" cy="-306" rx="45.15" ry="18"/>
<text text-anchor="middle" x="285.44" y="-303.5" font-family="Helvetica,sans-Serif" font-size="10.00" fill="#ffffff">app.aws.ses</text>
</g>
<!-- app_aws_ses&#45;&gt;app_background -->
<g id="edge5" class="edge">
<title>app_aws_ses&#45;&gt;app_background</title><style>.edge>path:hover{stroke-width:8}</style>
<path fill="none" stroke="black" d="M264.86,-289.85C248.58,-276.91 226.36,-256.95 212.44,-235"/>
</g>
<!-- app_background&#45;&gt;app_endpoints -->
<g id="edge6" class="edge">
<title>app_background&#45;&gt;app_endpoints</title><style>.edge>path:hover{stroke-width:8}</style>
<path fill="none" stroke="black" d="M175.92,-144.76C187.13,-135.42 201.39,-123.55 213.64,-113.33"/>
<polygon fill="#993333" stroke="black" points="215.91,-116 221.35,-106.91 211.43,-110.62 215.91,-116"/>
</g>
<!-- app_config -->
<g id="node5" class="node">
<title>app_config</title><style>.edge>path:hover{stroke-width:8}</style>
<ellipse fill="#ce3b3b" stroke="black" cx="39.44" cy="-418.21" rx="39.38" ry="18"/>
<text text-anchor="middle" x="39.44" y="-415.71" font-family="Helvetica,sans-Serif" font-size="10.00" fill="#ffffff">app.config</text>
</g>
<!-- app_config&#45;&gt;app_aws_ec2 -->
<g id="edge7" class="edge">
<title>app_config&#45;&gt;app_aws_ec2</title><style>.edge>path:hover{stroke-width:8}</style>
<path fill="none" stroke="black" d="M39.44,-360C44.31,-343.99 57.82,-332.11 71.92,-323.71"/>
<polygon fill="#ce3b3b" stroke="black" points="73.6,-326.78 80.71,-318.92 70.25,-320.63 73.6,-326.78"/>
</g>
<!-- app_tasks -->
<g id="node10" class="node">
<title>app_tasks</title><style>.edge>path:hover{stroke-width:8}</style>
<ellipse fill="#c43131" stroke="black" cx="39.44" cy="-234" rx="37.85" ry="18"/>
<text text-anchor="middle" x="39.44" y="-231.5" font-family="Helvetica,sans-Serif" font-size="10.00" fill="#ffffff">app.tasks</text>
</g>
<!-- app_config&#45;&gt;app_tasks -->
<g id="edge8" class="edge">
<title>app_config&#45;&gt;app_tasks</title><style>.edge>path:hover{stroke-width:8}</style>
<path fill="none" stroke="black" d="M36.9,-400.11C35.82,-388.77 35.58,-373.7 39.44,-361"/>
<path fill="none" stroke="black" d="M39.44,-360C49.32,-327.48 47.11,-287.96 43.91,-262.18"/>
<polygon fill="#ce3b3b" stroke="black" points="47.34,-261.46 42.51,-252.04 40.41,-262.42 47.34,-261.46"/>
</g>
<!-- app_main -->
<g id="node8" class="node">
<title>app_main</title><style>.edge>path:hover{stroke-width:8}</style>
<ellipse fill="#9d4343" stroke="black" cx="312.44" cy="-18" rx="36.49" ry="18"/>
<text text-anchor="middle" x="312.44" y="-15.5" font-family="Helvetica,sans-Serif" font-size="10.00" fill="#ffffff">app.main</text>
</g>
<!-- app_endpoints&#45;&gt;app_main -->
<g id="edge9" class="edge">
<title>app_endpoints&#45;&gt;app_main</title><style>.edge>path:hover{stroke-width:8}</style>
<path fill="none" stroke="black" d="M257.14,-72.76C266.63,-63.53 278.67,-51.83 289.09,-41.7"/>
<polygon fill="#913030" stroke="black" points="291.6,-44.15 296.33,-34.67 286.72,-39.13 291.6,-44.15"/>
</g>
<!-- app_logging_config -->
<g id="node7" class="node">
<title>app_logging_config</title><style>.edge>path:hover{stroke-width:8}</style>
<ellipse fill="#f31616" stroke="black" cx="285.44" cy="-418.21" rx="61.54" ry="21.43"/>
<text text-anchor="middle" x="285.44" y="-421.21" font-family="Helvetica,sans-Serif" font-size="10.00" fill="#ffffff">app.</text>
<text text-anchor="middle" x="285.44" y="-410.21" font-family="Helvetica,sans-Serif" font-size="10.00" fill="#ffffff">logging_config</text>
</g>
<!-- app_logging_config&#45;&gt;app_aws_ec2 -->
<g id="edge10" class="edge">
<title>app_logging_config&#45;&gt;app_aws_ec2</title><style>.edge>path:hover{stroke-width:8}</style>
<path fill="none" stroke="black" d="M288.62,-396.9C289.55,-385.97 289.42,-372.43 285.44,-361"/>
<path fill="none" stroke="black" d="M285.44,-360C281.18,-347.79 210.83,-329.36 161.17,-317.76"/>
<polygon fill="#f31616" stroke="black" points="161.76,-314.31 151.23,-315.47 160.19,-321.13 161.76,-314.31"/>
</g>
<!-- app_logging_config&#45;&gt;app_aws_ses -->
<g id="edge11" class="edge">
<title>app_logging_config&#45;&gt;app_aws_ses</title><style>.edge>path:hover{stroke-width:8}</style>
<path fill="none" stroke="black" d="M285.44,-360C282.63,-351.94 281.86,-342.75 282.01,-334.32"/>
<polygon fill="#f31616" stroke="black" points="285.52,-334.38 282.63,-324.19 278.53,-333.96 285.52,-334.38"/>
</g>
<!-- app_logging_config&#45;&gt;app_background -->
<g id="edge12" class="edge">
<title>app_logging_config&#45;&gt;app_background</title><style>.edge>path:hover{stroke-width:8}</style>
<path fill="none" stroke="black" d="M285.44,-360C275.95,-332.76 247.65,-347.86 231.44,-324 208.72,-290.54 234.1,-269.16 212.44,-235"/>
<path fill="none" stroke="black" d="M212.44,-233C201.56,-217.18 188.16,-200.34 177.19,-187.15"/>
<polygon fill="#f31616" stroke="black" points="179.84,-184.86 170.73,-179.45 174.48,-189.36 179.84,-184.86"/>
</g>
<!-- app_logging_config&#45;&gt;app_endpoints -->
<g id="edge13" class="edge">
<title>app_logging_config&#45;&gt;app_endpoints</title><style>.edge>path:hover{stroke-width:8}</style>
<path fill="none" stroke="black" d="M285.44,-360C276.5,-332.58 320.3,-345.58 339.44,-324 368.85,-290.84 394.09,-278.26 384.44,-235"/>
<path fill="none" stroke="black" d="M384.44,-233C370.22,-163.28 271.09,-227.22 240.44,-163"/>
</g>
<!-- app_logging_config&#45;&gt;app_main -->
<g id="edge14" class="edge">
<title>app_logging_config&#45;&gt;app_main</title><style>.edge>path:hover{stroke-width:8}</style>
<path fill="none" stroke="black" d="M384.44,-233C371.82,-171.16 394.55,-153.3 384.44,-91"/>
</g>
<!-- app_models -->
<g id="node9" class="node">
<title>app_models</title><style>.edge>path:hover{stroke-width:8}</style>
<ellipse fill="#ce3b3b" stroke="black" cx="312.44" cy="-162" rx="43.62" ry="18"/>
<text text-anchor="middle" x="312.44" y="-159.5" font-family="Helvetica,sans-Serif" font-size="10.00" fill="#ffffff">app.models</text>
</g>
<!-- app_models&#45;&gt;app_endpoints -->
<g id="edge15" class="edge">
<title>app_models&#45;&gt;app_endpoints</title><style>.edge>path:hover{stroke-width:8}</style>
<path fill="none" stroke="black" d="M296.1,-145.12C286.75,-136.03 274.85,-124.46 264.46,-114.35"/>
<polygon fill="#ce3b3b" stroke="black" points="266.82,-111.77 257.21,-107.31 261.94,-116.79 266.82,-111.77"/>
</g>
<!-- app_models&#45;&gt;app_main -->
<g id="edge16" class="edge">
<title>app_models&#45;&gt;app_main</title><style>.edge>path:hover{stroke-width:8}</style>
<path fill="none" stroke="black" d="M341.41,-148.21C363.19,-136.41 388.63,-116.81 384.44,-91"/>
<path fill="none" stroke="black" d="M384.44,-89C380.85,-66.87 362.7,-49.31 345.52,-37.32"/>
<polygon fill="#ce3b3b" stroke="black" points="347,-34.1 336.71,-31.55 343.17,-39.96 347,-34.1"/>
</g>
<!-- app_tasks&#45;&gt;app_background -->
<g id="edge17" class="edge">
<title>app_tasks&#45;&gt;app_background</title><style>.edge>path:hover{stroke-width:8}</style>
<path fill="none" stroke="black" d="M62,-219.5C79.16,-209.24 103.06,-194.94 122.52,-183.3"/>
<polygon fill="#c43131" stroke="black" points="124.32,-186.29 131.11,-178.16 120.73,-180.29 124.32,-186.29"/>
</g>
<!-- app_tasks&#45;&gt;app_endpoints -->
<g id="edge18" class="edge">
<title>app_tasks&#45;&gt;app_endpoints</title><style>.edge>path:hover{stroke-width:8}</style>
<path fill="none" stroke="black" d="M45.79,-216.17C51.67,-201.53 61.2,-180.05 72.44,-163"/>
<path fill="none" stroke="black" d="M72.44,-161C96.71,-124.19 144.43,-106.71 182.83,-98.43"/>
<polygon fill="#c43131" stroke="black" points="183.76,-101.81 192.88,-96.42 182.39,-94.95 183.76,-101.81"/>
</g>
</g>
</svg>
