<?xml version="1.0" encoding="UTF-8" standalone="no"?>
<!DOCTYPE svg PUBLIC "-//W3C//DTD SVG 1.1//EN"
 "http://www.w3.org/Graphics/SVG/1.1/DTD/svg11.dtd">
<!-- Generated by graphviz version 2.43.0 (0)
 -->
<!-- Title: G Pages: 1 -->
<svg width="493pt" height="526pt"
 viewBox="0.00 0.00 492.81 525.85" xmlns="http://www.w3.org/2000/svg" xmlns:xlink="http://www.w3.org/1999/xlink">
<g id="graph0" class="graph" transform="scale(1 1) rotate(0) translate(4 521.85)">
<title>G</title><style>.edge>path:hover{stroke-width:8}</style>
<polygon fill="white" stroke="transparent" points="-4,4 -4,-521.85 488.81,-521.85 488.81,4 -4,4"/>
<!-- app_aws -->
<g id="node1" class="node">
<title>app_aws</title><style>.edge>path:hover{stroke-width:8}</style>
<ellipse fill="#ce3b3b" stroke="black" cx="56.73" cy="-234" rx="33.61" ry="18"/>
<text text-anchor="middle" x="56.73" y="-231.5" font-family="Helvetica,sans-Serif" font-size="10.00" fill="#ffffff">app.aws</text>
</g>
<!-- app_background -->
<g id="node4" class="node">
<title>app_background</title><style>.edge>path:hover{stroke-width:8}</style>
<ellipse fill="#993333" stroke="black" cx="166.73" cy="-162" rx="55.85" ry="18"/>
<text text-anchor="middle" x="166.73" y="-159.5" font-family="Helvetica,sans-Serif" font-size="10.00" fill="#ffffff">app.background</text>
</g>
<!-- app_aws&#45;&gt;app_background -->
<g id="edge1" class="edge">
<title>app_aws&#45;&gt;app_background</title><style>.edge>path:hover{stroke-width:8}</style>
<path fill="none" stroke="black" d="M77.68,-219.67C93.54,-209.58 115.62,-195.53 133.83,-183.94"/>
<polygon fill="#ce3b3b" stroke="black" points="135.85,-186.8 142.41,-178.48 132.09,-180.89 135.85,-186.8"/>
</g>
<!-- app_endpoints -->
<g id="node6" class="node">
<title>app_endpoints</title><style>.edge>path:hover{stroke-width:8}</style>
<ellipse fill="#8a2e2e" stroke="black" cx="292.73" cy="-90" rx="50.75" ry="18"/>
<text text-anchor="middle" x="292.73" y="-87.5" font-family="Helvetica,sans-Serif" font-size="10.00" fill="#ffffff">app.endpoints</text>
</g>
<!-- app_aws&#45;&gt;app_endpoints -->
<g id="edge2" class="edge">
<title>app_aws&#45;&gt;app_endpoints</title><style>.edge>path:hover{stroke-width:8}</style>
<path fill="none" stroke="black" d="M52.49,-216.09C49.7,-201.21 48,-179.41 56.73,-163"/>
</g>
<!-- app_aws_ec2 -->
<g id="node2" class="node">
<title>app_aws_ec2</title><style>.edge>path:hover{stroke-width:8}</style>
<ellipse fill="#a32828" stroke="black" cx="111.73" cy="-306" rx="45.15" ry="18"/>
<text text-anchor="middle" x="111.73" y="-303.5" font-family="Helvetica,sans-Serif" font-size="10.00" fill="#ffffff">app.aws.ec2</text>
</g>
<!-- app_aws_ec2&#45;&gt;app_background -->
<g id="edge3" class="edge">
<title>app_aws_ec2&#45;&gt;app_background</title><style>.edge>path:hover{stroke-width:8}</style>
<path fill="none" stroke="black" d="M115.56,-287.9C119.9,-269.7 127.7,-240.24 137.73,-216 141.56,-206.75 146.57,-197.03 151.34,-188.47"/>
<polygon fill="#a32828" stroke="black" points="154.42,-190.14 156.36,-179.72 148.35,-186.65 154.42,-190.14"/>
</g>
<!-- app_aws_ec2&#45;&gt;app_endpoints -->
<g id="edge4" class="edge">
<title>app_aws_ec2&#45;&gt;app_endpoints</title><style>.edge>path:hover{stroke-width:8}</style>
<path fill="none" stroke="black" d="M74.72,-295.36C52.84,-287.54 26.9,-274.1 13.73,-252 -8.76,-214.26 36.09,-201.78 56.73,-163"/>
<path fill="none" stroke="black" d="M56.73,-161C72.69,-128.45 171.17,-108.3 235.77,-98.41"/>
<polygon fill="#a32828" stroke="black" points="236.45,-101.84 245.83,-96.91 235.42,-94.92 236.45,-101.84"/>
</g>
<!-- app_aws_ses -->
<g id="node3" class="node">
<title>app_aws_ses</title><style>.edge>path:hover{stroke-width:8}</style>
<ellipse fill="#a13535" stroke="black" cx="323.73" cy="-306" rx="45.15" ry="18"/>
<text text-anchor="middle" x="323.73" y="-303.5" font-family="Helvetica,sans-Serif" font-size="10.00" fill="#ffffff">app.aws.ses</text>
</g>
<!-- app_aws_ses&#45;&gt;app_background -->
<g id="edge5" class="edge">
<title>app_aws_ses&#45;&gt;app_background</title><style>.edge>path:hover{stroke-width:8}</style>
<path fill="none" stroke="black" d="M315.76,-288.13C305.94,-268.78 287.72,-237.01 264.73,-216 248.81,-201.44 228.15,-189.51 209.91,-180.67"/>
<polygon fill="#a13535" stroke="black" points="211.17,-177.4 200.63,-176.34 208.21,-183.74 211.17,-177.4"/>
</g>
<!-- app_background&#45;&gt;app_endpoints -->
<g id="edge6" class="edge">
<title>app_background&#45;&gt;app_endpoints</title><style>.edge>path:hover{stroke-width:8}</style>
<path fill="none" stroke="black" d="M193.45,-146.15C212.12,-135.78 237.24,-121.83 257.53,-110.55"/>
<polygon fill="#993333" stroke="black" points="259.44,-113.5 266.48,-105.58 256.04,-107.38 259.44,-113.5"/>
</g>
<!-- app_config -->
<g id="node5" class="node">
<title>app_config</title><style>.edge>path:hover{stroke-width:8}</style>
<ellipse fill="#ce3b3b" stroke="black" cx="181.73" cy="-418.21" rx="39.38" ry="18"/>
<text text-anchor="middle" x="181.73" y="-415.71" font-family="Helvetica,sans-Serif" font-size="10.00" fill="#ffffff">app.config</text>
</g>
<!-- app_config&#45;&gt;app_aws_ec2 -->
<g id="edge7" class="edge">
<title>app_config&#45;&gt;app_aws_ec2</title><style>.edge>path:hover{stroke-width:8}</style>
<path fill="none" stroke="black" d="M158.05,-403.6C143.14,-393.73 124.86,-378.99 114.73,-361"/>
</g>
<!-- app_tasks -->
<g id="node10" class="node">
<title>app_tasks</title><style>.edge>path:hover{stroke-width:8}</style>
<ellipse fill="#c43131" stroke="black" cx="184.73" cy="-234" rx="37.85" ry="18"/>
<text text-anchor="middle" x="184.73" y="-231.5" font-family="Helvetica,sans-Serif" font-size="10.00" fill="#ffffff">app.tasks</text>
</g>
<!-- app_config&#45;&gt;app_tasks -->
<g id="edge8" class="edge">
<title>app_config&#45;&gt;app_tasks</title><style>.edge>path:hover{stroke-width:8}</style>
<path fill="none" stroke="black" d="M182.01,-400.07C182.53,-368.46 183.65,-300.75 184.28,-262.6"/>
<polygon fill="#ce3b3b" stroke="black" points="187.78,-262.29 184.45,-252.23 180.78,-262.17 187.78,-262.29"/>
</g>
<!-- app_main -->
<g id="node8" class="node">
<title>app_main</title><style>.edge>path:hover{stroke-width:8}</style>
<ellipse fill="#964040" stroke="black" cx="331.73" cy="-18" rx="36.49" ry="18"/>
<text text-anchor="middle" x="331.73" y="-15.5" font-family="Helvetica,sans-Serif" font-size="10.00" fill="#ffffff">app.main</text>
</g>
<!-- app_endpoints&#45;&gt;app_main -->
<g id="edge9" class="edge">
<title>app_endpoints&#45;&gt;app_main</title><style>.edge>path:hover{stroke-width:8}</style>
<path fill="none" stroke="black" d="M302.17,-72.05C306.77,-63.8 312.4,-53.7 317.5,-44.54"/>
<polygon fill="#8a2e2e" stroke="black" points="320.57,-46.23 322.38,-35.79 314.45,-42.82 320.57,-46.23"/>
</g>
<!-- app_logging_config -->
<g id="node7" class="node">
<title>app_logging_config</title><style>.edge>path:hover{stroke-width:8}</style>
<ellipse fill="#f31616" stroke="black" cx="300.73" cy="-418.21" rx="61.54" ry="21.43"/>
<text text-anchor="middle" x="300.73" y="-421.21" font-family="Helvetica,sans-Serif" font-size="10.00" fill="#ffffff">app.</text>
<text text-anchor="middle" x="300.73" y="-410.21" font-family="Helvetica,sans-Serif" font-size="10.00" fill="#ffffff">logging_config</text>
</g>
<!-- app_logging_config&#45;&gt;app_aws_ec2 -->
<g id="edge10" class="edge">
<title>app_logging_config&#45;&gt;app_aws_ec2</title><style>.edge>path:hover{stroke-width:8}</style>
<path fill="none" stroke="black" d="M254.37,-404.05C199.86,-388.45 116.51,-364.16 114.73,-361"/>
</g>
<!-- app_logging_config&#45;&gt;app_aws_ses -->
<g id="edge11" class="edge">
<title>app_logging_config&#45;&gt;app_aws_ses</title><style>.edge>path:hover{stroke-width:8}</style>
<path fill="none" stroke="black" d="M250.73,-360C249.65,-342.62 263.28,-330.34 279.04,-322.01"/>
<polygon fill="#f31616" stroke="black" points="280.93,-324.99 288.48,-317.55 277.94,-318.66 280.93,-324.99"/>
</g>
<!-- app_logging_config&#45;&gt;app_background -->
<g id="edge12" class="edge">
<title>app_logging_config&#45;&gt;app_background</title><style>.edge>path:hover{stroke-width:8}</style>
<path fill="none" stroke="black" d="M273.35,-398.98C262.2,-389.3 251.68,-376.25 250.73,-361"/>
<path fill="none" stroke="black" d="M250.73,-360C247.29,-304.55 265.23,-288.63 250.73,-235"/>
<path fill="none" stroke="black" d="M250.73,-233C244.24,-210.82 224.93,-193.91 206.46,-182.27"/>
<polygon fill="#f31616" stroke="black" points="208.19,-179.23 197.8,-177.14 204.62,-185.25 208.19,-179.23"/>
</g>
<!-- app_logging_config&#45;&gt;app_endpoints -->
<g id="edge13" class="edge">
<title>app_logging_config&#45;&gt;app_endpoints</title><style>.edge>path:hover{stroke-width:8}</style>
<path fill="none" stroke="black" d="M250.73,-233C238.79,-192.21 259.78,-144.89 276.16,-116.48"/>
<polygon fill="#f31616" stroke="black" points="279.34,-117.98 281.48,-107.61 273.33,-114.38 279.34,-117.98"/>
</g>
<!-- app_logging_config&#45;&gt;app_main -->
<g id="edge14" class="edge">
<title>app_logging_config&#45;&gt;app_main</title><style>.edge>path:hover{stroke-width:8}</style>
<path fill="none" stroke="black" d="M355.44,-408.29C409.68,-395.95 484.73,-367.88 484.73,-307 484.73,-307 484.73,-307 484.73,-233 484.73,-192.55 485.05,-179.54 465.73,-144 449.82,-114.73 426.38,-121.39 412.73,-91"/>
</g>
<!-- app_models -->
<g id="node9" class="node">
<title>app_models</title><style>.edge>path:hover{stroke-width:8}</style>
<ellipse fill="#cc3333" stroke="black" cx="412.73" cy="-162" rx="43.62" ry="18"/>
<text text-anchor="middle" x="412.73" y="-159.5" font-family="Helvetica,sans-Serif" font-size="10.00" fill="#ffffff">app.models</text>
</g>
<!-- app_models&#45;&gt;app_endpoints -->
<g id="edge15" class="edge">
<title>app_models&#45;&gt;app_endpoints</title><style>.edge>path:hover{stroke-width:8}</style>
<path fill="none" stroke="black" d="M388.45,-146.83C370.75,-136.51 346.53,-122.38 326.89,-110.92"/>
<polygon fill="#cc3333" stroke="black" points="328.62,-107.88 318.22,-105.87 325.1,-113.93 328.62,-107.88"/>
</g>
<!-- app_models&#45;&gt;app_main -->
<g id="edge16" class="edge">
<title>app_models&#45;&gt;app_main</title><style>.edge>path:hover{stroke-width:8}</style>
<path fill="none" stroke="black" d="M416.53,-143.78C418.9,-129.09 420.25,-107.74 412.73,-91"/>
</g>
<!-- app_tasks&#45;&gt;app_background -->
<g id="edge17" class="edge">
<title>app_tasks&#45;&gt;app_background</title><style>.edge>path:hover{stroke-width:8}</style>
<path fill="none" stroke="black" d="M180.37,-216.05C178.37,-208.26 175.94,-198.82 173.69,-190.08"/>
<polygon fill="#c43131" stroke="black" points="177.05,-189.09 171.17,-180.28 170.27,-190.83 177.05,-189.09"/>
</g>
<!-- app_tasks&#45;&gt;app_endpoints -->
<g id="edge18" class="edge">
<title>app_tasks&#45;&gt;app_endpoints</title><style>.edge>path:hover{stroke-width:8}</style>
<path fill="none" stroke="black" d="M154.07,-223.24C112.9,-209.26 46.08,-183.01 56.73,-163"/>
</g>
<!-- boto3 -->
<g id="node11" class="node">
<title>boto3</title><style>.edge>path:hover{stroke-width:8}</style>
<ellipse fill="#aecc33" stroke="black" cx="114.73" cy="-496.64" rx="27" ry="18"/>
<text text-anchor="middle" x="114.73" y="-494.14" font-family="Helvetica,sans-Serif" font-size="10.00" fill="#000000">boto3</text>
</g>
<!-- boto3&#45;&gt;app_aws_ec2 -->
<g id="edge19" class="edge">
<title>boto3&#45;&gt;app_aws_ec2</title><style>.edge>path:hover{stroke-width:8}</style>
<path fill="none" stroke="black" d="M115.02,-478.64C115.21,-463.15 115.34,-439.64 114.73,-419.21"/>
</g>
<!-- boto3&#45;&gt;app_aws_ses -->
<g id="edge20" class="edge">
<title>boto3&#45;&gt;app_aws_ses</title><style>.edge>path:hover{stroke-width:8}</style>
<path fill="none" stroke="black" d="M133.58,-483.43C138.94,-480.41 144.91,-477.46 150.73,-475.43 254.14,-439.25 323.24,-505.51 390.73,-419.21"/>
</g>
<!-- botocore -->
<g id="node12" class="node">
<title>botocore</title><style>.edge>path:hover{stroke-width:8}</style>
<ellipse fill="#3bce76" stroke="black" cx="34.73" cy="-496.64" rx="34.96" ry="18"/>
<text text-anchor="middle" x="34.73" y="-494.14" font-family="Helvetica,sans-Serif" font-size="10.00" fill="#000000">botocore</text>
</g>
<!-- botocore&#45;&gt;app_aws_ec2 -->
<g id="edge21" class="edge">
<title>botocore&#45;&gt;app_aws_ec2</title><style>.edge>path:hover{stroke-width:8}</style>
<path fill="none" stroke="black" d="M60.43,-484.42C84.17,-472.11 115.64,-449.93 114.73,-419.21"/>
<path fill="none" stroke="black" d="M114.73,-417.21C113.99,-392.24 126.99,-382.77 114.73,-361"/>
<path fill="none" stroke="black" d="M114.73,-360C110.42,-352.35 108.91,-343.05 108.7,-334.4"/>
<polygon fill="#3bce76" stroke="black" points="112.2,-334.41 109,-324.31 105.2,-334.2 112.2,-334.41"/>
</g>
<!-- botocore&#45;&gt;app_aws_ses -->
<g id="edge22" class="edge">
<title>botocore&#45;&gt;app_aws_ses</title><style>.edge>path:hover{stroke-width:8}</style>
<path fill="none" stroke="black" d="M58.43,-483.14C64.87,-480.19 71.94,-477.35 78.73,-475.43 204.95,-439.62 254.71,-498.76 371.73,-439.43 382.73,-433.85 383.14,-428.92 390.73,-419.21"/>
<path fill="none" stroke="black" d="M390.73,-417.21C413.21,-388.48 379.94,-351.68 352.78,-328.72"/>
<polygon fill="#3bce76" stroke="black" points="354.93,-325.96 344.97,-322.35 350.5,-331.38 354.93,-325.96"/>
</g>
<!-- botocore_exceptions -->
<g id="node13" class="node">
<title>botocore_exceptions</title><style>.edge>path:hover{stroke-width:8}</style>
<ellipse fill="#40c073" stroke="black" cx="208.73" cy="-496.64" rx="49.49" ry="21.43"/>
<text text-anchor="middle" x="208.73" y="-499.64" font-family="Helvetica,sans-Serif" font-size="10.00" fill="#000000">botocore.</text>
<text text-anchor="middle" x="208.73" y="-488.64" font-family="Helvetica,sans-Serif" font-size="10.00" fill="#000000">exceptions</text>
</g>
<!-- botocore_exceptions&#45;&gt;app_aws_ec2 -->
<g id="edge23" class="edge">
<title>botocore_exceptions&#45;&gt;app_aws_ec2</title><style>.edge>path:hover{stroke-width:8}</style>
<path fill="none" stroke="black" d="M171.82,-482.31C145.88,-470.31 115.64,-449.8 114.73,-419.21"/>
</g>
<!-- botocore_exceptions&#45;&gt;app_aws_ses -->
<g id="edge24" class="edge">
<title>botocore_exceptions&#45;&gt;app_aws_ses</title><style>.edge>path:hover{stroke-width:8}</style>
<path fill="none" stroke="black" d="M255.02,-488.85C307.08,-480.16 386.73,-463.32 404.73,-439.43 425.97,-411.23 421.52,-391.05 404.73,-360 396.04,-343.94 380.14,-331.96 364.7,-323.49"/>
<polygon fill="#40c073" stroke="black" points="366.23,-320.34 355.73,-318.91 363.04,-326.58 366.23,-320.34"/>
</g>
<!-- fastapi -->
<g id="node14" class="node">
<title>fastapi</title><style>.edge>path:hover{stroke-width:8}</style>
<ellipse fill="#4778c2" stroke="black" cx="345.73" cy="-234" rx="29.37" ry="18"/>
<text text-anchor="middle" x="345.73" y="-231.5" font-family="Helvetica,sans-Serif" font-size="10.00" fill="#ffffff">fastapi</text>
</g>
<!-- fastapi&#45;&gt;app_endpoints -->
<g id="edge25" class="edge">
<title>fastapi&#45;&gt;app_endpoints</title><style>.edge>path:hover{stroke-width:8}</style>
<path fill="none" stroke="black" d="M343.39,-216.04C341.7,-201.87 339.86,-181.13 340.73,-163"/>
<path fill="none" stroke="black" d="M340.73,-161C341.58,-143.2 330.92,-126.6 319.44,-114.04"/>
<polygon fill="#4778c2" stroke="black" points="321.78,-111.43 312.27,-106.76 316.79,-116.34 321.78,-111.43"/>
</g>
<!-- fastapi&#45;&gt;app_main -->
<g id="edge26" class="edge">
<title>fastapi&#45;&gt;app_main</title><style>.edge>path:hover{stroke-width:8}</style>
<path fill="none" stroke="black" d="M340.73,-161C342.87,-116.42 431.01,-131.71 412.73,-91"/>
<path fill="none" stroke="black" d="M412.73,-89C402.85,-67 382.17,-49.32 364.19,-37.23"/>
<polygon fill="#4778c2" stroke="black" points="365.94,-34.19 355.63,-31.75 362.16,-40.09 365.94,-34.19"/>
</g>
<!-- pydantic -->
<g id="node15" class="node">
<title>pydantic</title><style>.edge>path:hover{stroke-width:8}</style>
<ellipse fill="#a640c0" stroke="black" cx="421.73" cy="-306" rx="34.96" ry="18"/>
<text text-anchor="middle" x="421.73" y="-303.5" font-family="Helvetica,sans-Serif" font-size="10.00" fill="#ffffff">pydantic</text>
</g>
<!-- pydantic&#45;&gt;app_models -->
<g id="edge27" class="edge">
<title>pydantic&#45;&gt;app_models</title><style>.edge>path:hover{stroke-width:8}</style>
<path fill="none" stroke="black" d="M420.65,-287.87C419.11,-263.67 416.29,-219.21 414.47,-190.39"/>
<polygon fill="#a640c0" stroke="black" points="417.95,-189.95 413.82,-180.19 410.96,-190.39 417.95,-189.95"/>
</g>
</g>
</svg>
