<?xml version="1.0" encoding="UTF-8" standalone="no"?>
<!DOCTYPE svg PUBLIC "-//W3C//DTD SVG 1.1//EN"
 "http://www.w3.org/Graphics/SVG/1.1/DTD/svg11.dtd">
<!-- Generated by graphviz version 2.43.0 (0)
 -->
<!-- Title: G Pages: 1 -->
<svg width="473pt" height="519pt"
 viewBox="0.00 0.00 473.14 519.43" xmlns="http://www.w3.org/2000/svg" xmlns:xlink="http://www.w3.org/1999/xlink">
<g id="graph0" class="graph" transform="scale(1 1) rotate(0) translate(4 515.43)">
<title>G</title><style>.edge>path:hover{stroke-width:8}</style>
<polygon fill="white" stroke="transparent" points="-4,4 -4,-515.43 469.14,-515.43 469.14,4 -4,4"/>
<!-- app_aws -->
<g id="node1" class="node">
<title>app_aws</title><style>.edge>path:hover{stroke-width:8}</style>
<ellipse fill="#ce3b3b" stroke="black" cx="33.55" cy="-234" rx="33.61" ry="18"/>
<text text-anchor="middle" x="33.55" y="-231.5" font-family="Helvetica,sans-Serif" font-size="10.00" fill="#ffffff">app.aws</text>
</g>
<!-- app_background -->
<g id="node4" class="node">
<title>app_background</title><style>.edge>path:hover{stroke-width:8}</style>
<ellipse fill="#993333" stroke="black" cx="193.55" cy="-162" rx="55.85" ry="18"/>
<text text-anchor="middle" x="193.55" y="-159.5" font-family="Helvetica,sans-Serif" font-size="10.00" fill="#ffffff">app.background</text>
</g>
<!-- app_aws&#45;&gt;app_background -->
<g id="edge1" class="edge">
<title>app_aws&#45;&gt;app_background</title><style>.edge>path:hover{stroke-width:8}</style>
<path fill="none" stroke="black" d="M58.91,-221.91C84.03,-210.92 122.93,-193.9 152.47,-180.97"/>
<polygon fill="#ce3b3b" stroke="black" points="153.95,-184.15 161.71,-176.93 151.14,-177.73 153.95,-184.15"/>
</g>
<!-- app_endpoints -->
<g id="node6" class="node">
<title>app_endpoints</title><style>.edge>path:hover{stroke-width:8}</style>
<ellipse fill="#8a2e2e" stroke="black" cx="293.55" cy="-90" rx="50.75" ry="18"/>
<text text-anchor="middle" x="293.55" y="-87.5" font-family="Helvetica,sans-Serif" font-size="10.00" fill="#ffffff">app.endpoints</text>
</g>
<!-- app_aws&#45;&gt;app_endpoints -->
<g id="edge2" class="edge">
<title>app_aws&#45;&gt;app_endpoints</title><style>.edge>path:hover{stroke-width:8}</style>
<path fill="none" stroke="black" d="M50.05,-218.18C65.57,-204.14 89.38,-182.39 109.55,-163"/>
<path fill="none" stroke="black" d="M109.55,-161C117.72,-153.15 118.72,-149.63 128.55,-144 163.45,-124 206.89,-110.44 240.44,-102.04"/>
<polygon fill="#ce3b3b" stroke="black" points="241.62,-105.36 250.51,-99.6 239.97,-98.56 241.62,-105.36"/>
</g>
<!-- app_aws_ec2 -->
<g id="node2" class="node">
<title>app_aws_ec2</title><style>.edge>path:hover{stroke-width:8}</style>
<ellipse fill="#a32828" stroke="black" cx="151.55" cy="-306" rx="45.15" ry="18"/>
<text text-anchor="middle" x="151.55" y="-303.5" font-family="Helvetica,sans-Serif" font-size="10.00" fill="#ffffff">app.aws.ec2</text>
</g>
<!-- app_aws_ec2&#45;&gt;app_background -->
<g id="edge3" class="edge">
<title>app_aws_ec2&#45;&gt;app_background</title><style>.edge>path:hover{stroke-width:8}</style>
<path fill="none" stroke="black" d="M170.2,-289.58C183.75,-276.49 199.41,-256.44 197.55,-235"/>
<path fill="none" stroke="black" d="M197.55,-233C196.34,-218.98 195.4,-203.34 194.75,-190.41"/>
<polygon fill="#a32828" stroke="black" points="198.24,-190.1 194.26,-180.28 191.24,-190.44 198.24,-190.1"/>
</g>
<!-- app_aws_ec2&#45;&gt;app_endpoints -->
<g id="edge4" class="edge">
<title>app_aws_ec2&#45;&gt;app_endpoints</title><style>.edge>path:hover{stroke-width:8}</style>
<path fill="none" stroke="black" d="M174.3,-290.32C206.63,-267.69 263.51,-220.81 277.55,-163"/>
<path fill="none" stroke="black" d="M277.55,-161C281.2,-146.8 284.87,-130.88 287.77,-117.82"/>
<polygon fill="#a32828" stroke="black" points="291.2,-118.55 289.92,-108.03 284.36,-117.05 291.2,-118.55"/>
</g>
<!-- app_aws_ses -->
<g id="node3" class="node">
<title>app_aws_ses</title><style>.edge>path:hover{stroke-width:8}</style>
<ellipse fill="#a13535" stroke="black" cx="260.55" cy="-306" rx="45.15" ry="18"/>
<text text-anchor="middle" x="260.55" y="-303.5" font-family="Helvetica,sans-Serif" font-size="10.00" fill="#ffffff">app.aws.ses</text>
</g>
<!-- app_aws_ses&#45;&gt;app_background -->
<g id="edge5" class="edge">
<title>app_aws_ses&#45;&gt;app_background</title><style>.edge>path:hover{stroke-width:8}</style>
<path fill="none" stroke="black" d="M236.8,-290.51C219.82,-278.21 199.62,-258.78 197.55,-235"/>
</g>
<!-- app_background&#45;&gt;app_endpoints -->
<g id="edge6" class="edge">
<title>app_background&#45;&gt;app_endpoints</title><style>.edge>path:hover{stroke-width:8}</style>
<path fill="none" stroke="black" d="M215.75,-145.46C229.7,-135.7 247.88,-122.97 263.16,-112.28"/>
<polygon fill="#993333" stroke="black" points="265.58,-114.85 271.77,-106.25 261.57,-109.12 265.58,-114.85"/>
</g>
<!-- app_config -->
<g id="node5" class="node">
<title>app_config</title><style>.edge>path:hover{stroke-width:8}</style>
<ellipse fill="#ce3b3b" stroke="black" cx="78.55" cy="-418.21" rx="39.38" ry="18"/>
<text text-anchor="middle" x="78.55" y="-415.71" font-family="Helvetica,sans-Serif" font-size="10.00" fill="#ffffff">app.config</text>
</g>
<!-- app_config&#45;&gt;app_aws_ec2 -->
<g id="edge7" class="edge">
<title>app_config&#45;&gt;app_aws_ec2</title><style>.edge>path:hover{stroke-width:8}</style>
<path fill="none" stroke="black" d="M78.55,-360C83.42,-343.99 96.94,-332.11 111.04,-323.71"/>
<polygon fill="#ce3b3b" stroke="black" points="112.72,-326.78 119.82,-318.92 109.36,-320.63 112.72,-326.78"/>
</g>
<!-- app_tasks -->
<g id="node10" class="node">
<title>app_tasks</title><style>.edge>path:hover{stroke-width:8}</style>
<ellipse fill="#c43131" stroke="black" cx="122.55" cy="-234" rx="37.85" ry="18"/>
<text text-anchor="middle" x="122.55" y="-231.5" font-family="Helvetica,sans-Serif" font-size="10.00" fill="#ffffff">app.tasks</text>
</g>
<!-- app_config&#45;&gt;app_tasks -->
<g id="edge8" class="edge">
<title>app_config&#45;&gt;app_tasks</title><style>.edge>path:hover{stroke-width:8}</style>
<path fill="none" stroke="black" d="M76.01,-400.11C74.94,-388.77 74.69,-373.7 78.55,-361"/>
<path fill="none" stroke="black" d="M78.55,-360C88.18,-328.33 86.22,-319.1 97.55,-288 100.84,-278.97 105.11,-269.39 109.18,-260.89"/>
<polygon fill="#ce3b3b" stroke="black" points="112.36,-262.37 113.64,-251.85 106.08,-259.27 112.36,-262.37"/>
</g>
<!-- app_main -->
<g id="node8" class="node">
<title>app_main</title><style>.edge>path:hover{stroke-width:8}</style>
<ellipse fill="#964040" stroke="black" cx="332.55" cy="-18" rx="36.49" ry="18"/>
<text text-anchor="middle" x="332.55" y="-15.5" font-family="Helvetica,sans-Serif" font-size="10.00" fill="#ffffff">app.main</text>
</g>
<!-- app_endpoints&#45;&gt;app_main -->
<g id="edge9" class="edge">
<title>app_endpoints&#45;&gt;app_main</title><style>.edge>path:hover{stroke-width:8}</style>
<path fill="none" stroke="black" d="M302.99,-72.05C307.59,-63.8 313.22,-53.7 318.33,-44.54"/>
<polygon fill="#8a2e2e" stroke="black" points="321.39,-46.23 323.2,-35.79 315.28,-42.82 321.39,-46.23"/>
</g>
<!-- app_logging_config -->
<g id="node7" class="node">
<title>app_logging_config</title><style>.edge>path:hover{stroke-width:8}</style>
<ellipse fill="#f31616" stroke="black" cx="350.55" cy="-418.21" rx="61.54" ry="21.43"/>
<text text-anchor="middle" x="350.55" y="-421.21" font-family="Helvetica,sans-Serif" font-size="10.00" fill="#ffffff">app.</text>
<text text-anchor="middle" x="350.55" y="-410.21" font-family="Helvetica,sans-Serif" font-size="10.00" fill="#ffffff">logging_config</text>
</g>
<!-- app_logging_config&#45;&gt;app_aws_ec2 -->
<g id="edge10" class="edge">
<title>app_logging_config&#45;&gt;app_aws_ec2</title><style>.edge>path:hover{stroke-width:8}</style>
<path fill="none" stroke="black" d="M345.83,-396.97C342.94,-386.06 338.79,-372.51 333.55,-361"/>
<path fill="none" stroke="black" d="M333.55,-360C309.25,-306.6 262.81,-340.66 206.55,-324 203.04,-322.96 199.41,-321.87 195.76,-320.76"/>
<polygon fill="#f31616" stroke="black" points="196.72,-317.4 186.14,-317.83 194.68,-324.09 196.72,-317.4"/>
</g>
<!-- app_logging_config&#45;&gt;app_aws_ses -->
<g id="edge11" class="edge">
<title>app_logging_config&#45;&gt;app_aws_ses</title><style>.edge>path:hover{stroke-width:8}</style>
<path fill="none" stroke="black" d="M333.55,-360C326.69,-344.92 313.03,-333.25 299.36,-324.74"/>
<polygon fill="#f31616" stroke="black" points="300.86,-321.57 290.45,-319.61 297.37,-327.64 300.86,-321.57"/>
</g>
<!-- app_logging_config&#45;&gt;app_background -->
<g id="edge12" class="edge">
<title>app_logging_config&#45;&gt;app_background</title><style>.edge>path:hover{stroke-width:8}</style>
<path fill="none" stroke="black" d="M333.55,-360C319.85,-329.88 328.46,-318.03 314.55,-288 302.48,-261.93 293.65,-258.8 277.55,-235"/>
<path fill="none" stroke="black" d="M277.55,-233C265.9,-212.79 246.08,-195.85 228.62,-183.7"/>
<polygon fill="#f31616" stroke="black" points="230.54,-180.78 220.28,-178.13 226.65,-186.6 230.54,-180.78"/>
</g>
<!-- app_logging_config&#45;&gt;app_endpoints -->
<g id="edge13" class="edge">
<title>app_logging_config&#45;&gt;app_endpoints</title><style>.edge>path:hover{stroke-width:8}</style>
<path fill="none" stroke="black" d="M277.55,-233C262.02,-206.05 269.82,-193.13 277.55,-163"/>
</g>
<!-- app_logging_config&#45;&gt;app_main -->
<g id="edge14" class="edge">
<title>app_logging_config&#45;&gt;app_main</title><style>.edge>path:hover{stroke-width:8}</style>
<path fill="none" stroke="black" d="M333.55,-360C313.52,-318.61 403,-360.82 430.55,-324 478.56,-259.85 471.22,-218.02 440.55,-144 427.81,-113.22 398.23,-122.56 387.55,-91"/>
</g>
<!-- app_models -->
<g id="node9" class="node">
<title>app_models</title><style>.edge>path:hover{stroke-width:8}</style>
<ellipse fill="#cc3333" stroke="black" cx="387.55" cy="-162" rx="43.62" ry="18"/>
<text text-anchor="middle" x="387.55" y="-159.5" font-family="Helvetica,sans-Serif" font-size="10.00" fill="#ffffff">app.models</text>
</g>
<!-- app_models&#45;&gt;app_endpoints -->
<g id="edge15" class="edge">
<title>app_models&#45;&gt;app_endpoints</title><style>.edge>path:hover{stroke-width:8}</style>
<path fill="none" stroke="black" d="M367.16,-145.81C354.16,-136.13 337.11,-123.43 322.69,-112.7"/>
<polygon fill="#cc3333" stroke="black" points="324.67,-109.81 314.56,-106.64 320.49,-115.42 324.67,-109.81"/>
</g>
<!-- app_models&#45;&gt;app_main -->
<g id="edge16" class="edge">
<title>app_models&#45;&gt;app_main</title><style>.edge>path:hover{stroke-width:8}</style>
<path fill="none" stroke="black" d="M390.56,-143.82C392.39,-129.33 393.39,-108.27 387.55,-91"/>
</g>
<!-- app_tasks&#45;&gt;app_background -->
<g id="edge17" class="edge">
<title>app_tasks&#45;&gt;app_background</title><style>.edge>path:hover{stroke-width:8}</style>
<path fill="none" stroke="black" d="M138.31,-217.46C147.52,-208.39 159.32,-196.75 169.65,-186.57"/>
<polygon fill="#c43131" stroke="black" points="172.19,-188.98 176.85,-179.47 167.27,-184 172.19,-188.98"/>
</g>
<!-- app_tasks&#45;&gt;app_endpoints -->
<g id="edge18" class="edge">
<title>app_tasks&#45;&gt;app_endpoints</title><style>.edge>path:hover{stroke-width:8}</style>
<path fill="none" stroke="black" d="M112.43,-216.63C103.94,-200.62 95.3,-176.71 109.55,-163"/>
</g>
<!-- boto3 -->
<g id="node11" class="node">
<title>boto3</title><style>.edge>path:hover{stroke-width:8}</style>
<polygon fill="#aecc33" stroke="black" points="305.55,-511.43 302.55,-515.43 281.55,-515.43 278.55,-511.43 251.55,-511.43 251.55,-475.43 305.55,-475.43 305.55,-511.43"/>
<text text-anchor="middle" x="278.55" y="-490.93" font-family="Helvetica,sans-Serif" font-size="10.00" fill="#000000">boto3</text>
</g>
<!-- boto3&#45;&gt;app_aws_ec2 -->
<g id="edge19" class="edge">
<title>boto3&#45;&gt;app_aws_ec2</title><style>.edge>path:hover{stroke-width:8}</style>
<path fill="none" stroke="black" d="M278.93,-475.11C278.9,-449.26 276.51,-399.51 260.55,-361"/>
<path fill="none" stroke="black" d="M260.55,-360C253.36,-347.2 221.63,-332.61 194.24,-321.98"/>
<polygon fill="#aecc33" stroke="black" points="195.37,-318.66 184.78,-318.39 192.89,-325.21 195.37,-318.66"/>
</g>
<!-- boto3&#45;&gt;app_aws_ses -->
<g id="edge20" class="edge">
<title>boto3&#45;&gt;app_aws_ses</title><style>.edge>path:hover{stroke-width:8}</style>
<path fill="none" stroke="black" d="M260.55,-360C257.29,-352.11 256.39,-342.97 256.57,-334.53"/>
<polygon fill="#aecc33" stroke="black" points="260.08,-334.58 257.28,-324.36 253.09,-334.09 260.08,-334.58"/>
</g>
<!-- botocore -->
<g id="node12" class="node">
<title>botocore</title><style>.edge>path:hover{stroke-width:8}</style>
<polygon fill="#3bce76" stroke="black" points="233.05,-511.43 230.05,-515.43 209.05,-515.43 206.05,-511.43 174.05,-511.43 174.05,-475.43 233.05,-475.43 233.05,-511.43"/>
<text text-anchor="middle" x="203.55" y="-490.93" font-family="Helvetica,sans-Serif" font-size="10.00" fill="#000000">botocore</text>
</g>
<!-- botocore&#45;&gt;app_aws_ec2 -->
<g id="edge21" class="edge">
<title>botocore&#45;&gt;app_aws_ec2</title><style>.edge>path:hover{stroke-width:8}</style>
<path fill="none" stroke="black" d="M209.19,-475.41C216.77,-450.35 228.63,-402.05 222.55,-361"/>
<path fill="none" stroke="black" d="M222.55,-360C220.41,-343.58 207.52,-331.6 193.29,-323.22"/>
<polygon fill="#3bce76" stroke="black" points="194.82,-320.07 184.34,-318.47 191.53,-326.25 194.82,-320.07"/>
</g>
<!-- botocore&#45;&gt;app_aws_ses -->
<g id="edge22" class="edge">
<title>botocore&#45;&gt;app_aws_ses</title><style>.edge>path:hover{stroke-width:8}</style>
<path fill="none" stroke="black" d="M222.55,-360C221.1,-348.83 226.52,-338.33 233.69,-329.67"/>
<polygon fill="#3bce76" stroke="black" points="236.34,-331.96 240.62,-322.27 231.23,-327.18 236.34,-331.96"/>
</g>
<!-- fastapi -->
<g id="node13" class="node">
<title>fastapi</title><style>.edge>path:hover{stroke-width:8}</style>
<polygon fill="#4778c2" stroke="black" points="359.55,-252 356.55,-256 335.55,-256 332.55,-252 305.55,-252 305.55,-216 359.55,-216 359.55,-252"/>
<text text-anchor="middle" x="332.55" y="-231.5" font-family="Helvetica,sans-Serif" font-size="10.00" fill="#ffffff">fastapi</text>
</g>
<!-- fastapi&#45;&gt;app_endpoints -->
<g id="edge23" class="edge">
<title>fastapi&#45;&gt;app_endpoints</title><style>.edge>path:hover{stroke-width:8}</style>
<path fill="none" stroke="black" d="M325.42,-215.72C320.36,-201.72 314.61,-181.36 315.55,-163"/>
<path fill="none" stroke="black" d="M315.55,-161C316.32,-146 311.71,-129.96 306.52,-117.03"/>
<polygon fill="#4778c2" stroke="black" points="309.71,-115.59 302.51,-107.81 303.29,-118.38 309.71,-115.59"/>
</g>
<!-- fastapi&#45;&gt;app_main -->
<g id="edge24" class="edge">
<title>fastapi&#45;&gt;app_main</title><style>.edge>path:hover{stroke-width:8}</style>
<path fill="none" stroke="black" d="M315.55,-161C317.84,-116.43 401.85,-133.28 387.55,-91"/>
<path fill="none" stroke="black" d="M387.55,-89C381.44,-70.94 368.45,-54.02 356.62,-41.35"/>
<polygon fill="#4778c2" stroke="black" points="358.97,-38.74 349.48,-34.03 353.96,-43.63 358.97,-38.74"/>
</g>
<!-- pydantic -->
<g id="node14" class="node">
<title>pydantic</title><style>.edge>path:hover{stroke-width:8}</style>
<polygon fill="#a640c0" stroke="black" points="421.05,-324 418.05,-328 397.05,-328 394.05,-324 362.05,-324 362.05,-288 421.05,-288 421.05,-324"/>
<text text-anchor="middle" x="391.55" y="-303.5" font-family="Helvetica,sans-Serif" font-size="10.00" fill="#ffffff">pydantic</text>
</g>
<!-- pydantic&#45;&gt;app_models -->
<g id="edge25" class="edge">
<title>pydantic&#45;&gt;app_models</title><style>.edge>path:hover{stroke-width:8}</style>
<path fill="none" stroke="black" d="M391.07,-287.87C390.39,-263.67 389.14,-219.21 388.33,-190.39"/>
<polygon fill="#a640c0" stroke="black" points="391.82,-190.09 388.04,-180.19 384.82,-190.28 391.82,-190.09"/>
</g>
</g>
</svg>
