<?xml version="1.0" encoding="UTF-8" standalone="no"?><svg xmlns="http://www.w3.org/2000/svg" xmlns:xlink="http://www.w3.org/1999/xlink" contentScriptType="application/ecmascript" contentStyleType="text/css" height="953px" preserveAspectRatio="none" style="width:1883px;height:953px;background:#FEFEFE;" version="1.1" viewBox="0 0 1883 953" width="1883px" zoomAndPan="magnify"><defs><filter height="300%" id="fbfsg0t98hxy8" width="300%" x="-1" y="-1"><feGaussianBlur result="blurOut" stdDeviation="2.0"/><feColorMatrix in="blurOut" result="blurOut2" type="matrix" values="0 0 0 0 0 0 0 0 0 0 0 0 0 0 0 0 0 0 .4 0"/><feOffset dx="4.0" dy="4.0" in="blurOut2" result="blurOut3"/><feBlend in="SourceGraphic" in2="blurOut3" mode="normal"/></filter></defs><g><!--MD5=[0f7bc2b2700b8f1b8b0a0321832dd523]
class BaseModel--><rect fill="#E8F4F8" filter="url(#fbfsg0t98hxy8)" height="117.9609" id="BaseModel" style="stroke: #1BA0C8; stroke-width: 1.5;" width="137" x="1158.52" y="8"/><ellipse cx="1190.62" cy="26.9688" fill="#A9DCDF" rx="11" ry="11" style="stroke: #1BA0C8; stroke-width: 1.0;"/><path d="M1190.7294,22.3125 L1189.5731,27.3906 L1191.9013,27.3906 L1190.7294,22.3125 Z M1189.245,20.0781 L1192.2294,20.0781 L1195.5888,32.4688 L1193.1356,32.4688 L1192.37,29.4063 L1189.0888,29.4063 L1188.3388,32.4688 L1185.9013,32.4688 L1189.245,20.0781 Z "/><text fill="#000000" font-family="sans-serif" font-size="12" font-style="italic" lengthAdjust="spacingAndGlyphs" textLength="68" x="1207.92" y="24.1387">«pydantic»</text><text fill="#000000" font-family="sans-serif" font-size="12" font-style="italic" lengthAdjust="spacingAndGlyphs" textLength="67" x="1208.42" y="38.1074">BaseModel</text><line style="stroke: #1BA0C8; stroke-width: 1.5;" x1="1159.52" x2="1294.52" y1="45.9375" y2="45.9375"/><rect fill="none" height="6" style="stroke: #C82930; stroke-width: 1.0;" width="6" x="1166.52" y="53.9375"/><text fill="#000000" font-family="sans-serif" font-size="11" lengthAdjust="spacingAndGlyphs" textLength="20" x="1178.52" y="60.1479">dict</text><line style="stroke: #1BA0C8; stroke-width: 1.5;" x1="1159.52" x2="1294.52" y1="66.7422" y2="66.7422"/><rect fill="#F24D5C" height="6" style="stroke: #C82930; stroke-width: 1.0;" width="6" x="1166.52" y="74.7422"/><text fill="#000000" font-family="sans-serif" font-size="11" lengthAdjust="spacingAndGlyphs" textLength="53" x="1178.52" y="80.9526">schema()</text><ellipse cx="1169.52" cy="90.5469" fill="#84BE84" rx="3" ry="3" style="stroke: #038048; stroke-width: 1.0;"/><text fill="#000000" font-family="sans-serif" font-size="11" lengthAdjust="spacingAndGlyphs" textLength="93" x="1178.52" y="93.7573">model_validate()</text><ellipse cx="1169.52" cy="103.3516" fill="#84BE84" rx="3" ry="3" style="stroke: #038048; stroke-width: 1.0;"/><text fill="#000000" font-family="sans-serif" font-size="11" lengthAdjust="spacingAndGlyphs" textLength="81" x="1178.52" y="106.562">model_dump()</text><ellipse cx="1169.52" cy="116.1563" fill="#84BE84" rx="3" ry="3" style="stroke: #038048; stroke-width: 1.0;"/><text fill="#000000" font-family="sans-serif" font-size="11" lengthAdjust="spacingAndGlyphs" textLength="111" x="1178.52" y="119.3667">model_dump_json()</text><!--MD5=[a0607e00a5ad5e80443a948dc4125a49]
class InstanceOption--><rect fill="#E8F4F8" filter="url(#fbfsg0t98hxy8)" height="99.2188" id="InstanceOption" style="stroke: #1BA0C8; stroke-width: 1.5;" width="208" x="565.02" y="219"/><ellipse cx="617.27" cy="235" fill="#ADD1B2" rx="11" ry="11" style="stroke: #1BA0C8; stroke-width: 1.0;"/><path d="M620.2388,240.6406 Q619.6606,240.9375 619.02,241.0781 Q618.3794,241.2344 617.6763,241.2344 Q615.1763,241.2344 613.8481,239.5938 Q612.5356,237.9375 612.5356,234.8125 Q612.5356,231.6875 613.8481,230.0313 Q615.1763,228.375 617.6763,228.375 Q618.3794,228.375 619.02,228.5313 Q619.6763,228.6875 620.2388,228.9844 L620.2388,231.7031 Q619.6138,231.125 619.02,230.8594 Q618.4263,230.5781 617.8013,230.5781 Q616.4575,230.5781 615.77,231.6563 Q615.0825,232.7188 615.0825,234.8125 Q615.0825,236.9063 615.77,237.9844 Q616.4575,239.0469 617.8013,239.0469 Q618.4263,239.0469 619.02,238.7813 Q619.6138,238.5 620.2388,237.9219 L620.2388,240.6406 Z "/><text fill="#000000" font-family="sans-serif" font-size="12" lengthAdjust="spacingAndGlyphs" textLength="95" x="637.77" y="239.1543">InstanceOption</text><line style="stroke: #1BA0C8; stroke-width: 1.5;" x1="566.02" x2="772.02" y1="251" y2="251"/><rect fill="none" height="6" style="stroke: #C82930; stroke-width: 1.0;" width="6" x="573.02" y="259"/><text fill="#000000" font-family="sans-serif" font-size="11" lengthAdjust="spacingAndGlyphs" textLength="137" x="585.02" y="265.2104">instance_types: List[str]</text><rect fill="none" height="6" style="stroke: #C82930; stroke-width: 1.0;" width="6" x="573.02" y="271.8047"/><text fill="#000000" font-family="sans-serif" font-size="11" lengthAdjust="spacingAndGlyphs" textLength="136" x="585.02" y="278.0151">available_apps: List[str]</text><line style="stroke: #1BA0C8; stroke-width: 1.0;" x1="566.02" x2="772.02" y1="284.6094" y2="284.6094"/><text fill="#000000" font-family="sans-serif" font-size="11" lengthAdjust="spacingAndGlyphs" textLength="196" x="571.02" y="298.8198">Example output from GET /options</text><text fill="#000000" font-family="sans-serif" font-size="11" lengthAdjust="spacingAndGlyphs" textLength="179" x="571.02" y="311.6245">Shows what user can provision</text><!--MD5=[8598461610c854b90ccb417df39011ac]
class LaunchInstanceRequest--><rect fill="#E8F4F8" filter="url(#fbfsg0t98hxy8)" height="163.2422" id="LaunchInstanceRequest" style="stroke: #1BA0C8; stroke-width: 1.5;" width="200" x="53.02" y="187"/><ellipse cx="75.67" cy="203" fill="#ADD1B2" rx="11" ry="11" style="stroke: #1BA0C8; stroke-width: 1.0;"/><path d="M78.6388,208.6406 Q78.0606,208.9375 77.42,209.0781 Q76.7794,209.2344 76.0763,209.2344 Q73.5763,209.2344 72.2481,207.5938 Q70.9356,205.9375 70.9356,202.8125 Q70.9356,199.6875 72.2481,198.0313 Q73.5763,196.375 76.0763,196.375 Q76.7794,196.375 77.42,196.5313 Q78.0763,196.6875 78.6388,196.9844 L78.6388,199.7031 Q78.0138,199.125 77.42,198.8594 Q76.8263,198.5781 76.2013,198.5781 Q74.8575,198.5781 74.17,199.6563 Q73.4825,200.7188 73.4825,202.8125 Q73.4825,204.9063 74.17,205.9844 Q74.8575,207.0469 76.2013,207.0469 Q76.8263,207.0469 77.42,206.7813 Q78.0138,206.5 78.6388,205.9219 L78.6388,208.6406 Z "/><text fill="#000000" font-family="sans-serif" font-size="12" lengthAdjust="spacingAndGlyphs" textLength="151" x="91.37" y="207.1543">LaunchInstanceRequest</text><line style="stroke: #1BA0C8; stroke-width: 1.5;" x1="54.02" x2="252.02" y1="219" y2="219"/><rect fill="none" height="6" style="stroke: #C82930; stroke-width: 1.0;" width="6" x="61.02" y="227"/><text fill="#000000" font-family="sans-serif" font-size="11" lengthAdjust="spacingAndGlyphs" textLength="110" x="73.02" y="233.2104">instance_name: str</text><rect fill="none" height="6" style="stroke: #C82930; stroke-width: 1.0;" width="6" x="61.02" y="239.8047"/><text fill="#000000" font-family="sans-serif" font-size="11" lengthAdjust="spacingAndGlyphs" textLength="102" x="73.02" y="246.0151">instance_type: str</text><rect fill="none" height="6" style="stroke: #C82930; stroke-width: 1.0;" width="6" x="61.02" y="252.6094"/><text fill="#000000" font-family="sans-serif" font-size="11" lengthAdjust="spacingAndGlyphs" textLength="83" x="73.02" y="258.8198">app_name: str</text><rect fill="none" height="6" style="stroke: #C82930; stroke-width: 1.0;" width="6" x="61.02" y="265.4141"/><text fill="#000000" font-family="sans-serif" font-size="11" lengthAdjust="spacingAndGlyphs" textLength="59" x="73.02" y="271.6245">owner: str</text><line style="stroke: #1BA0C8; stroke-width: 1.0;" x1="54.02" x2="252.02" y1="278.2188" y2="278.2188"/><text fill="#000000" font-family="sans-serif" font-size="11" lengthAdjust="spacingAndGlyphs" textLength="59" x="73.02" y="292.4292">Validation:</text><rect fill="none" height="6" style="stroke: #C82930; stroke-width: 1.0;" width="6" x="61.02" y="299.0234"/><text fill="#000000" font-family="sans-serif" font-size="11" lengthAdjust="spacingAndGlyphs" textLength="154" x="73.02" y="305.2339">instance_name: non-empty</text><rect fill="none" height="6" style="stroke: #C82930; stroke-width: 1.0;" width="6" x="61.02" y="311.8281"/><text fill="#000000" font-family="sans-serif" font-size="11" lengthAdjust="spacingAndGlyphs" textLength="164" x="73.02" y="318.0386">instance_type: in allowed list</text><rect fill="none" height="6" style="stroke: #C82930; stroke-width: 1.0;" width="6" x="61.02" y="324.6328"/><text fill="#000000" font-family="sans-serif" font-size="11" lengthAdjust="spacingAndGlyphs" textLength="174" x="73.02" y="330.8433">app_name: in AVAILABLE_APPS</text><rect fill="none" height="6" style="stroke: #C82930; stroke-width: 1.0;" width="6" x="61.02" y="337.4375"/><text fill="#000000" font-family="sans-serif" font-size="11" lengthAdjust="spacingAndGlyphs" textLength="169" x="73.02" y="343.6479">owner: valid email-like format</text><!--MD5=[e78d75d4956f38b8973237a056515962]
class LaunchInstanceResponse--><rect fill="#E8F4F8" filter="url(#fbfsg0t98hxy8)" height="99.2188" id="LaunchInstanceResponse" style="stroke: #1BA0C8; stroke-width: 1.5;" width="199" x="53.52" y="427"/><ellipse cx="71.22" cy="443" fill="#ADD1B2" rx="11" ry="11" style="stroke: #1BA0C8; stroke-width: 1.0;"/><path d="M74.1888,448.6406 Q73.6106,448.9375 72.97,449.0781 Q72.3294,449.2344 71.6263,449.2344 Q69.1263,449.2344 67.7981,447.5938 Q66.4856,445.9375 66.4856,442.8125 Q66.4856,439.6875 67.7981,438.0313 Q69.1263,436.375 71.6263,436.375 Q72.3294,436.375 72.97,436.5313 Q73.6263,436.6875 74.1888,436.9844 L74.1888,439.7031 Q73.5638,439.125 72.97,438.8594 Q72.3763,438.5781 71.7513,438.5781 Q70.4075,438.5781 69.72,439.6563 Q69.0325,440.7188 69.0325,442.8125 Q69.0325,444.9063 69.72,445.9844 Q70.4075,447.0469 71.7513,447.0469 Q72.3763,447.0469 72.97,446.7813 Q73.5638,446.5 74.1888,445.9219 L74.1888,448.6406 Z "/><text fill="#000000" font-family="sans-serif" font-size="12" lengthAdjust="spacingAndGlyphs" textLength="161" x="85.82" y="447.1543">LaunchInstanceResponse</text><line style="stroke: #1BA0C8; stroke-width: 1.5;" x1="54.52" x2="251.52" y1="459" y2="459"/><rect fill="none" height="6" style="stroke: #C82930; stroke-width: 1.0;" width="6" x="61.52" y="467"/><text fill="#000000" font-family="sans-serif" font-size="11" lengthAdjust="spacingAndGlyphs" textLength="64" x="73.52" y="473.2104">task_id: str</text><rect fill="none" height="6" style="stroke: #C82930; stroke-width: 1.0;" width="6" x="61.52" y="479.8047"/><text fill="#000000" font-family="sans-serif" font-size="11" lengthAdjust="spacingAndGlyphs" textLength="77" x="73.52" y="486.0151">message: str</text><line style="stroke: #1BA0C8; stroke-width: 1.0;" x1="54.52" x2="251.52" y1="492.6094" y2="492.6094"/><text fill="#000000" font-family="sans-serif" font-size="11" lengthAdjust="spacingAndGlyphs" textLength="169" x="59.52" y="506.8198">HTTP 202 Accepted Response</text><text fill="#000000" font-family="sans-serif" font-size="11" lengthAdjust="spacingAndGlyphs" textLength="187" x="59.52" y="519.6245">User polls GET /status/{task_id}</text><!--MD5=[007b513da6771087a86fbb3bd355c48d]
class TaskStatus--><rect fill="#E8F4F8" filter="url(#fbfsg0t98hxy8)" height="163.2422" id="TaskStatus" style="stroke: #1BA0C8; stroke-width: 1.5;" width="223" x="660.52" y="603"/><ellipse cx="732.77" cy="619" fill="#ADD1B2" rx="11" ry="11" style="stroke: #1BA0C8; stroke-width: 1.0;"/><path d="M735.7388,624.6406 Q735.1606,624.9375 734.52,625.0781 Q733.8794,625.2344 733.1763,625.2344 Q730.6763,625.2344 729.3481,623.5938 Q728.0356,621.9375 728.0356,618.8125 Q728.0356,615.6875 729.3481,614.0313 Q730.6763,612.375 733.1763,612.375 Q733.8794,612.375 734.52,612.5313 Q735.1763,612.6875 735.7388,612.9844 L735.7388,615.7031 Q735.1138,615.125 734.52,614.8594 Q733.9263,614.5781 733.3013,614.5781 Q731.9575,614.5781 731.27,615.6563 Q730.5825,616.7188 730.5825,618.8125 Q730.5825,620.9063 731.27,621.9844 Q731.9575,623.0469 733.3013,623.0469 Q733.9263,623.0469 734.52,622.7813 Q735.1138,622.5 735.7388,621.9219 L735.7388,624.6406 Z "/><text fill="#000000" font-family="sans-serif" font-size="12" lengthAdjust="spacingAndGlyphs" textLength="70" x="753.27" y="623.1543">TaskStatus</text><line style="stroke: #1BA0C8; stroke-width: 1.5;" x1="661.52" x2="882.52" y1="635" y2="635"/><rect fill="none" height="6" style="stroke: #C82930; stroke-width: 1.0;" width="6" x="668.52" y="643"/><text fill="#000000" font-family="sans-serif" font-size="11" lengthAdjust="spacingAndGlyphs" textLength="64" x="680.52" y="649.2104">task_id: str</text><rect fill="none" height="6" style="stroke: #C82930; stroke-width: 1.0;" width="6" x="668.52" y="655.8047"/><text fill="#000000" font-family="sans-serif" font-size="11" lengthAdjust="spacingAndGlyphs" textLength="60" x="680.52" y="662.0151">status: str</text><rect fill="none" height="6" style="stroke: #C82930; stroke-width: 1.0;" width="6" x="668.52" y="668.6094"/><text fill="#000000" font-family="sans-serif" font-size="11" lengthAdjust="spacingAndGlyphs" textLength="143" x="680.52" y="674.8198">instance_id: Optional[str]</text><rect fill="none" height="6" style="stroke: #C82930; stroke-width: 1.0;" width="6" x="668.52" y="681.4141"/><text fill="#000000" font-family="sans-serif" font-size="11" lengthAdjust="spacingAndGlyphs" textLength="128" x="680.52" y="687.6245">public_ip: Optional[str]</text><rect fill="none" height="6" style="stroke: #C82930; stroke-width: 1.0;" width="6" x="668.52" y="694.2188"/><text fill="#000000" font-family="sans-serif" font-size="11" lengthAdjust="spacingAndGlyphs" textLength="77" x="680.52" y="700.4292">message: str</text><line style="stroke: #1BA0C8; stroke-width: 1.0;" x1="661.52" x2="882.52" y1="707.0234" y2="707.0234"/><text fill="#000000" font-family="sans-serif" font-size="11" lengthAdjust="spacingAndGlyphs" textLength="82" x="680.52" y="721.2339">Status values:</text><rect fill="none" height="6" style="stroke: #C82930; stroke-width: 1.0;" width="6" x="668.52" y="727.8281"/><text fill="#000000" font-family="sans-serif" font-size="11" lengthAdjust="spacingAndGlyphs" textLength="197" x="680.52" y="734.0386">PENDING: Provisioning in progress</text><rect fill="none" height="6" style="stroke: #C82930; stroke-width: 1.0;" width="6" x="668.52" y="740.6328"/><text fill="#000000" font-family="sans-serif" font-size="11" lengthAdjust="spacingAndGlyphs" textLength="158" x="680.52" y="746.8433">SUCCESS: Instance created</text><rect fill="none" height="6" style="stroke: #C82930; stroke-width: 1.0;" width="6" x="668.52" y="753.4375"/><text fill="#000000" font-family="sans-serif" font-size="11" lengthAdjust="spacingAndGlyphs" textLength="149" x="680.52" y="759.6479">FAILED: Provisioning failed</text><!--MD5=[d75490f40f1c3fefeb5eff3efa3c0c1f]
class TerminateInstanceResponse--><rect fill="#E8F4F8" filter="url(#fbfsg0t98hxy8)" height="99.2188" id="TerminateInstanceResponse" style="stroke: #1BA0C8; stroke-width: 1.5;" width="211" x="929.52" y="843"/><ellipse cx="944.52" cy="859" fill="#ADD1B2" rx="11" ry="11" style="stroke: #1BA0C8; stroke-width: 1.0;"/><path d="M947.4888,864.6406 Q946.9106,864.9375 946.27,865.0781 Q945.6294,865.2344 944.9263,865.2344 Q942.4263,865.2344 941.0981,863.5938 Q939.7856,861.9375 939.7856,858.8125 Q939.7856,855.6875 941.0981,854.0313 Q942.4263,852.375 944.9263,852.375 Q945.6294,852.375 946.27,852.5313 Q946.9263,852.6875 947.4888,852.9844 L947.4888,855.7031 Q946.8638,855.125 946.27,854.8594 Q945.6763,854.5781 945.0513,854.5781 Q943.7075,854.5781 943.02,855.6563 Q942.3325,856.7188 942.3325,858.8125 Q942.3325,860.9063 943.02,861.9844 Q943.7075,863.0469 945.0513,863.0469 Q945.6763,863.0469 946.27,862.7813 Q946.8638,862.5 947.4888,861.9219 L947.4888,864.6406 Z "/><text fill="#000000" font-family="sans-serif" font-size="12" lengthAdjust="spacingAndGlyphs" textLength="179" x="958.52" y="863.1543">TerminateInstanceResponse</text><line style="stroke: #1BA0C8; stroke-width: 1.5;" x1="930.52" x2="1139.52" y1="875" y2="875"/><rect fill="none" height="6" style="stroke: #C82930; stroke-width: 1.0;" width="6" x="937.52" y="883"/><text fill="#000000" font-family="sans-serif" font-size="11" lengthAdjust="spacingAndGlyphs" textLength="77" x="949.52" y="889.2104">message: str</text><rect fill="none" height="6" style="stroke: #C82930; stroke-width: 1.0;" width="6" x="937.52" y="895.8047"/><text fill="#000000" font-family="sans-serif" font-size="11" lengthAdjust="spacingAndGlyphs" textLength="88" x="949.52" y="902.0151">instance_id: str</text><line style="stroke: #1BA0C8; stroke-width: 1.0;" x1="930.52" x2="1139.52" y1="908.6094" y2="908.6094"/><text fill="#000000" font-family="sans-serif" font-size="11" lengthAdjust="spacingAndGlyphs" textLength="114" x="935.52" y="922.8198">HTTP 200 Response</text><text fill="#000000" font-family="sans-serif" font-size="11" lengthAdjust="spacingAndGlyphs" textLength="187" x="935.52" y="935.6245">Instance terminated immediately</text><!--MD5=[d70279aee16cb60954d73d22597b95b5]
class ErrorResponse--><rect fill="#E8F4F8" filter="url(#fbfsg0t98hxy8)" height="137.6328" id="ErrorResponse" style="stroke: #1BA0C8; stroke-width: 1.5;" width="192" x="1351.02" y="199.5"/><ellipse cx="1396.27" cy="215.5" fill="#ADD1B2" rx="11" ry="11" style="stroke: #1BA0C8; stroke-width: 1.0;"/><path d="M1399.2388,221.1406 Q1398.6606,221.4375 1398.02,221.5781 Q1397.3794,221.7344 1396.6763,221.7344 Q1394.1763,221.7344 1392.8481,220.0938 Q1391.5356,218.4375 1391.5356,215.3125 Q1391.5356,212.1875 1392.8481,210.5313 Q1394.1763,208.875 1396.6763,208.875 Q1397.3794,208.875 1398.02,209.0313 Q1398.6763,209.1875 1399.2388,209.4844 L1399.2388,212.2031 Q1398.6138,211.625 1398.02,211.3594 Q1397.4263,211.0781 1396.8013,211.0781 Q1395.4575,211.0781 1394.77,212.1563 Q1394.0825,213.2188 1394.0825,215.3125 Q1394.0825,217.4063 1394.77,218.4844 Q1395.4575,219.5469 1396.8013,219.5469 Q1397.4263,219.5469 1398.02,219.2813 Q1398.6138,219 1399.2388,218.4219 L1399.2388,221.1406 Z "/><text fill="#000000" font-family="sans-serif" font-size="12" lengthAdjust="spacingAndGlyphs" textLength="93" x="1416.77" y="219.6543">ErrorResponse</text><line style="stroke: #1BA0C8; stroke-width: 1.5;" x1="1352.02" x2="1542.02" y1="231.5" y2="231.5"/><rect fill="none" height="6" style="stroke: #C82930; stroke-width: 1.0;" width="6" x="1359.02" y="239.5"/><text fill="#000000" font-family="sans-serif" font-size="11" lengthAdjust="spacingAndGlyphs" textLength="53" x="1371.02" y="245.7104">error: str</text><rect fill="none" height="6" style="stroke: #C82930; stroke-width: 1.0;" width="6" x="1359.02" y="252.3047"/><text fill="#000000" font-family="sans-serif" font-size="11" lengthAdjust="spacingAndGlyphs" textLength="77" x="1371.02" y="258.5151">message: str</text><rect fill="none" height="6" style="stroke: #C82930; stroke-width: 1.0;" width="6" x="1359.02" y="265.1094"/><text fill="#000000" font-family="sans-serif" font-size="11" lengthAdjust="spacingAndGlyphs" textLength="91" x="1371.02" y="271.3198">status_code: int</text><line style="stroke: #1BA0C8; stroke-width: 1.0;" x1="1352.02" x2="1542.02" y1="277.9141" y2="277.9141"/><text fill="#000000" font-family="sans-serif" font-size="11" lengthAdjust="spacingAndGlyphs" textLength="180" x="1357.02" y="292.1245">Used for HTTP error responses</text><text fill="#000000" font-family="sans-serif" font-size="11" lengthAdjust="spacingAndGlyphs" textLength="99" x="1357.02" y="304.9292">400: Bad request</text><text fill="#000000" font-family="sans-serif" font-size="11" lengthAdjust="spacingAndGlyphs" textLength="84" x="1357.02" y="317.7339">404: Not found</text><text fill="#000000" font-family="sans-serif" font-size="11" lengthAdjust="spacingAndGlyphs" textLength="100" x="1357.02" y="330.5386">500: Server error</text><path d="M1331.02,9 L1331.02,63 L1295.66,67 L1331.02,71 L1331.02,124.9297 A0,0 0 0 0 1331.02,124.9297 L1505.02,124.9297 A0,0 0 0 0 1505.02,124.9297 L1505.02,19 L1495.02,9 L1331.02,9 A0,0 0 0 0 1331.02,9 " fill="#FBFB77" filter="url(#fbfsg0t98hxy8)" style="stroke: #A80036; stroke-width: 1.0;"/><path d="M1495.02,9 L1495.02,19 L1505.02,19 L1495.02,9 " fill="#FBFB77" style="stroke: #A80036; stroke-width: 1.0;"/><text fill="#000000" font-family="sans-serif" font-size="13" lengthAdjust="spacingAndGlyphs" textLength="144" x="1337.02" y="26.0669">All models inherit from</text><text fill="#000000" font-family="sans-serif" font-size="13" lengthAdjust="spacingAndGlyphs" textLength="153" x="1337.02" y="41.1997">pydantic.BaseModel for:</text><text fill="#000000" font-family="sans-serif" font-size="13" lengthAdjust="spacingAndGlyphs" textLength="140" x="1337.02" y="56.3325">- Automatic validation</text><text fill="#000000" font-family="sans-serif" font-size="13" lengthAdjust="spacingAndGlyphs" textLength="99" x="1337.02" y="71.4653">- Type checking</text><text fill="#000000" font-family="sans-serif" font-size="13" lengthAdjust="spacingAndGlyphs" textLength="121" x="1337.02" y="86.5981">- JSON serialization</text><text fill="#000000" font-family="sans-serif" font-size="13" lengthAdjust="spacingAndGlyphs" textLength="108" x="1337.02" y="101.731">- Documentation</text><text fill="#000000" font-family="sans-serif" font-size="13" lengthAdjust="spacingAndGlyphs" textLength="135" x="1337.02" y="116.8638">- Schema generation</text><path d="M288.52,210.5 L288.52,264.5 L253.02,268.5 L288.52,272.5 L288.52,326.4297 A0,0 0 0 0 288.52,326.4297 L529.52,326.4297 A0,0 0 0 0 529.52,326.4297 L529.52,220.5 L519.52,210.5 L288.52,210.5 A0,0 0 0 0 288.52,210.5 " fill="#FBFB77" filter="url(#fbfsg0t98hxy8)" style="stroke: #A80036; stroke-width: 1.0;"/><path d="M519.52,210.5 L519.52,220.5 L529.52,220.5 L519.52,210.5 " fill="#FBFB77" style="stroke: #A80036; stroke-width: 1.0;"/><text fill="#000000" font-family="sans-serif" font-size="13" font-weight="bold" lengthAdjust="spacingAndGlyphs" textLength="68" x="294.52" y="227.5669">Example:</text><text fill="#000000" font-family="sans-serif" font-size="13" lengthAdjust="spacingAndGlyphs" textLength="8" x="294.52" y="242.6997">{</text><text fill="#000000" font-family="sans-serif" font-size="13" lengthAdjust="spacingAndGlyphs" textLength="212" x="302.52" y="257.8325">"instance_name": "db-server-01",</text><text fill="#000000" font-family="sans-serif" font-size="13" lengthAdjust="spacingAndGlyphs" textLength="174" x="302.52" y="272.9653">"instance_type": "t3.micro",</text><text fill="#000000" font-family="sans-serif" font-size="13" lengthAdjust="spacingAndGlyphs" textLength="138" x="302.52" y="288.0981">"app_name": "mysql",</text><text fill="#000000" font-family="sans-serif" font-size="13" lengthAdjust="spacingAndGlyphs" textLength="206" x="302.52" y="303.231">"owner": "admin@example.com"</text><text fill="#000000" font-family="sans-serif" font-size="13" lengthAdjust="spacingAndGlyphs" textLength="8" x="294.52" y="318.3638">}</text><path d="M918.52,619 L918.52,680.5 L883.73,684.5 L918.52,688.5 L918.52,750.0625 A0,0 0 0 0 918.52,750.0625 L1245.52,750.0625 A0,0 0 0 0 1245.52,750.0625 L1245.52,629 L1235.52,619 L918.52,619 A0,0 0 0 0 918.52,619 " fill="#FBFB77" filter="url(#fbfsg0t98hxy8)" style="stroke: #A80036; stroke-width: 1.0;"/><path d="M1235.52,619 L1235.52,629 L1245.52,629 L1235.52,619 " fill="#FBFB77" style="stroke: #A80036; stroke-width: 1.0;"/><text fill="#000000" font-family="sans-serif" font-size="13" font-weight="bold" lengthAdjust="spacingAndGlyphs" textLength="68" x="924.52" y="636.0669">Example:</text><text fill="#000000" font-family="sans-serif" font-size="13" lengthAdjust="spacingAndGlyphs" textLength="8" x="924.52" y="651.1997">{</text><text fill="#000000" font-family="sans-serif" font-size="13" lengthAdjust="spacingAndGlyphs" textLength="138" x="932.52" y="666.3325">"task_id": "uuid-here",</text><text fill="#000000" font-family="sans-serif" font-size="13" lengthAdjust="spacingAndGlyphs" textLength="135" x="932.52" y="681.4653">"status": "SUCCESS",</text><text fill="#000000" font-family="sans-serif" font-size="13" lengthAdjust="spacingAndGlyphs" textLength="243" x="932.52" y="696.5981">"instance_id": "i-1234567890abcdef0",</text><text fill="#000000" font-family="sans-serif" font-size="13" lengthAdjust="spacingAndGlyphs" textLength="171" x="932.52" y="711.731">"public_ip": "54.123.45.67",</text><text fill="#000000" font-family="sans-serif" font-size="13" lengthAdjust="spacingAndGlyphs" textLength="298" x="932.52" y="726.8638">"message": "Instance provisioned successfully"</text><text fill="#000000" font-family="sans-serif" font-size="13" lengthAdjust="spacingAndGlyphs" textLength="8" x="924.52" y="741.9966">}</text><path d="M808.02,225.5 L808.02,264.5 L773.11,268.5 L808.02,272.5 L808.02,311.1641 A0,0 0 0 0 808.02,311.1641 L1174.02,311.1641 A0,0 0 0 0 1174.02,311.1641 L1174.02,235.5 L1164.02,225.5 L808.02,225.5 A0,0 0 0 0 808.02,225.5 " fill="#FBFB77" filter="url(#fbfsg0t98hxy8)" style="stroke: #A80036; stroke-width: 1.0;"/><path d="M1164.02,225.5 L1164.02,235.5 L1174.02,235.5 L1164.02,225.5 " fill="#FBFB77" style="stroke: #A80036; stroke-width: 1.0;"/><text fill="#000000" font-family="sans-serif" font-size="13" font-weight="bold" lengthAdjust="spacingAndGlyphs" textLength="68" x="814.02" y="242.5669">Example:</text><text fill="#000000" font-family="sans-serif" font-size="13" lengthAdjust="spacingAndGlyphs" textLength="8" x="814.02" y="257.6997">{</text><text fill="#000000" font-family="sans-serif" font-size="13" lengthAdjust="spacingAndGlyphs" textLength="260" x="822.02" y="272.8325">"instance_types": ["t3.micro", "t3.small"],</text><text fill="#000000" font-family="sans-serif" font-size="13" lengthAdjust="spacingAndGlyphs" textLength="337" x="822.02" y="287.9653">"available_apps": ["nginx", "mysql", "httpd", "mongo"]</text><text fill="#000000" font-family="sans-serif" font-size="13" lengthAdjust="spacingAndGlyphs" textLength="8" x="814.02" y="303.0981">}</text><path d="M1578.52,203 L1578.52,334.0625 L1871.52,334.0625 L1871.52,213 L1861.52,203 L1578.52,203 " fill="#FBFB77" filter="url(#fbfsg0t98hxy8)" style="stroke: #A80036; stroke-width: 1.0;"/><path d="M1861.52,203 L1861.52,213 L1871.52,213 L1861.52,203 " fill="#FBFB77" style="stroke: #A80036; stroke-width: 1.0;"/><text fill="#000000" font-family="sans-serif" font-size="13" lengthAdjust="spacingAndGlyphs" textLength="182" x="1584.52" y="220.0669">Model Inheritance Hierarchy:</text><text fill="#000000" font-family="sans-serif" font-size="13" lengthAdjust="spacingAndGlyphs" textLength="0" x="1588.52" y="235.1997"/><text fill="#000000" font-family="sans-serif" font-size="13" lengthAdjust="spacingAndGlyphs" textLength="143" x="1584.52" y="250.3325">All models implement:</text><text fill="#000000" font-family="sans-serif" font-size="13" lengthAdjust="spacingAndGlyphs" textLength="177" x="1584.52" y="265.4653">✓ Field validation (Pydantic)</text><text fill="#000000" font-family="sans-serif" font-size="13" lengthAdjust="spacingAndGlyphs" textLength="88" x="1584.52" y="280.5981">✓ Type safety</text><text fill="#000000" font-family="sans-serif" font-size="13" lengthAdjust="spacingAndGlyphs" textLength="127" x="1584.52" y="295.731">✓ JSON serialization</text><text fill="#000000" font-family="sans-serif" font-size="13" lengthAdjust="spacingAndGlyphs" textLength="170" x="1584.52" y="310.8638">✓ OpenAPI documentation</text><text fill="#000000" font-family="sans-serif" font-size="13" lengthAdjust="spacingAndGlyphs" textLength="272" x="1584.52" y="325.9966">✓ Request/response automatic conversion</text><!--MD5=[acf228c0caab0d60e5e713c5d1bed336]
reverse link BaseModel to InstanceOption--><path d="M1138.59,83.4 C1048.23,101.11 905.21,134.67 790.02,187 C770.84,195.71 751.3,207.31 733.67,218.98 " fill="none" id="BaseModel&lt;-InstanceOption" style="stroke: #1BA0C8; stroke-width: 1.0;"/><polygon fill="none" points="1137.48,76.49,1158.44,79.6,1140.11,90.24,1137.48,76.49" style="stroke: #1BA0C8; stroke-width: 1.0;"/><!--MD5=[33356212627437a5bb82529752fd2ad3]
reverse link BaseModel to LaunchInstanceRequest--><path d="M1138.27,73.69 C932.61,87.74 429,127.31 271.02,187 C265.11,189.24 259.2,191.82 253.35,194.67 " fill="none" id="BaseModel&lt;-LaunchInstanceRequest" style="stroke: #1BA0C8; stroke-width: 1.0;"/><polygon fill="none" points="1137.95,66.7,1158.37,72.34,1138.89,80.67,1137.95,66.7" style="stroke: #1BA0C8; stroke-width: 1.0;"/><!--MD5=[e9d43b7767f3e1936182296f49a44538]
reverse link BaseModel to LaunchInstanceResponse--><path d="M1137.8,70.16 C873.56,77.46 108.78,105.51 35.02,187 C-13.59,240.71 8.33,282.65 35.02,350 C46.65,379.33 68.73,405.8 90.68,426.79 " fill="none" id="BaseModel&lt;-LaunchInstanceResponse" style="stroke: #1BA0C8; stroke-width: 1.0;"/><polygon fill="none" points="1137.97,63.15,1158.15,69.61,1138.34,77.15,1137.97,63.15" style="stroke: #1BA0C8; stroke-width: 1.0;"/><!--MD5=[b4ac3f50cc86537668c6de9ad6766609]
reverse link BaseModel to TaskStatus--><path d="M1232.39,146.28 C1232.99,205.8 1226.05,287.77 1191.02,350 C1153.91,415.93 994.64,532.82 883.53,609.23 " fill="none" id="BaseModel&lt;-TaskStatus" style="stroke: #1BA0C8; stroke-width: 1.0;"/><polygon fill="none" points="1225.39,146.4,1231.9,126.24,1239.39,146.06,1225.39,146.4" style="stroke: #1BA0C8; stroke-width: 1.0;"/><!--MD5=[a8ad9567d4e21d67d416d3d3da63c1a7]
reverse link BaseModel to TerminateInstanceResponse--><path d="M1268.14,144.95 C1283.83,181.11 1298.02,225.43 1298.02,267.5 C1298.02,267.5 1298.02,267.5 1298.02,685.5 C1298.02,769.45 1213.94,824.33 1140.86,856.17 " fill="none" id="BaseModel&lt;-TerminateInstanceResponse" style="stroke: #1BA0C8; stroke-width: 1.0;"/><polygon fill="none" points="1261.57,147.41,1259.61,126.31,1274.3,141.59,1261.57,147.41" style="stroke: #1BA0C8; stroke-width: 1.0;"/><!--MD5=[d4b882e150588998ce0857f8db6ce0cb]
reverse link BaseModel to ErrorResponse--><path d="M1306.12,139.73 C1327.54,159.15 1350.65,180.11 1371.85,199.33 " fill="none" id="BaseModel&lt;-ErrorResponse" style="stroke: #1BA0C8; stroke-width: 1.0;"/><polygon fill="none" points="1301.36,144.86,1291.25,126.24,1310.76,134.49,1301.36,144.86" style="stroke: #1BA0C8; stroke-width: 1.0;"/><!--MD5=[badae76b78166c48cb8c71de951f69cc]
link LaunchInstanceRequest to LaunchInstanceResponse--><path d="M153.02,350.03 C153.02,374.06 153.02,399.8 153.02,421.68 " fill="none" id="LaunchInstanceRequest-&gt;LaunchInstanceResponse" style="stroke: #1BA0C8; stroke-width: 1.0;"/><polygon fill="#1BA0C8" points="153.02,426.86,157.02,417.86,153.02,421.86,149.02,417.86,153.02,426.86" style="stroke: #1BA0C8; stroke-width: 1.0;"/><text fill="#000000" font-family="sans-serif" font-size="13" lengthAdjust="spacingAndGlyphs" textLength="48" x="154.02" y="393.0669">creates</text><text fill="#000000" font-family="sans-serif" font-size="13" lengthAdjust="spacingAndGlyphs" textLength="8" x="144.6513" y="370.2993">1</text><text fill="#000000" font-family="sans-serif" font-size="13" lengthAdjust="spacingAndGlyphs" textLength="8" x="144.4575" y="415.8855">1</text><!--MD5=[f69e943c6236b0f3958df36582e7cdd0]
link LaunchInstanceResponse to TaskStatus--><path d="M252.82,510.71 C362.77,547.3 539.4,606.08 655.58,644.75 " fill="none" id="LaunchInstanceResponse-&gt;TaskStatus" style="stroke: #1BA0C8; stroke-width: 1.0;"/><polygon fill="#1BA0C8" points="660.38,646.35,653.1128,639.7026,655.638,644.7646,650.5761,647.2898,660.38,646.35" style="stroke: #1BA0C8; stroke-width: 1.0;"/><text fill="#000000" font-family="sans-serif" font-size="13" lengthAdjust="spacingAndGlyphs" textLength="29" x="427.02" y="569.0669">polls</text><text fill="#000000" font-family="sans-serif" font-size="13" lengthAdjust="spacingAndGlyphs" textLength="8" x="260.4428" y="509.7353">1</text><text fill="#000000" font-family="sans-serif" font-size="13" lengthAdjust="spacingAndGlyphs" textLength="8" x="644.6104" y="640.3461">1</text><!--MD5=[e4ab949f56fa57c004d1c19aad0ab1ce]
link TaskStatus to TerminateInstanceResponse--><path d="M874.83,766.03 C906.42,790.77 940.32,817.32 968.77,839.61 " fill="none" id="TaskStatus-&gt;TerminateInstanceResponse" style="stroke: #1BA0C8; stroke-width: 1.0;"/><polygon fill="#1BA0C8" points="972.92,842.86,968.2977,834.1632,968.9825,839.7785,963.3672,840.4632,972.92,842.86" style="stroke: #1BA0C8; stroke-width: 1.0;"/><text fill="#000000" font-family="sans-serif" font-size="13" lengthAdjust="spacingAndGlyphs" textLength="70" x="929.02" y="809.0669">terminates</text><text fill="#000000" font-family="sans-serif" font-size="13" lengthAdjust="spacingAndGlyphs" textLength="8" x="875.939" y="786.2993">1</text><text fill="#000000" font-family="sans-serif" font-size="13" lengthAdjust="spacingAndGlyphs" textLength="24" x="938.4997" y="831.8855">0..1</text><!--MD5=[9ca184494e94246eb34029f29fbc509f]
link BaseModel to GMN30--><path d="M1295.76,117.33 C1301.47,120.5 1307.26,123.44 1313.02,126 C1416.37,171.87 1453.72,148.44 1560.02,187 C1573.05,191.73 1586.42,197.17 1599.64,202.96 " fill="none" id="BaseModel-GMN30" style="stroke: #1BA0C8; stroke-width: 1.0; stroke-dasharray: 7.0,7.0;"/><!--MD5=[e3f88f166c49624efd6cd3d6686c70f0]
@startuml
skinparam backgroundColor #FEFEFE
skinparam ClassBackgroundColor #E8F4F8
skinparam ClassBorderColor #1BA0C8
skinparam ArrowColor #1BA0C8

abstract class BaseModel <<pydantic>> {
    - dict
    - schema()
    + model_validate()
    + model_dump()
    + model_dump_json()
}

class InstanceOption {
    - instance_types: List[str]
    - available_apps: List[str]
    - - -
    Example output from GET /options
    Shows what user can provision
}

class LaunchInstanceRequest {
    - instance_name: str
    - instance_type: str
    - app_name: str
    - owner: str
    - - -
    Validation:
    - instance_name: non-empty
    - instance_type: in allowed list
    - app_name: in AVAILABLE_APPS
    - owner: valid email-like format
}

class LaunchInstanceResponse {
    - task_id: str
    - message: str
    - - -
    HTTP 202 Accepted Response
    User polls GET /status/{task_id}
}

class TaskStatus {
    - task_id: str
    - status: str
    - instance_id: Optional[str]
    - public_ip: Optional[str]
    - message: str
    - - -
    Status values:
    - PENDING: Provisioning in progress
    - SUCCESS: Instance created
    - FAILED: Provisioning failed
}

class TerminateInstanceResponse {
    - message: str
    - instance_id: str
    - - -
    HTTP 200 Response
    Instance terminated immediately
}

class ErrorResponse {
    - error: str
    - message: str
    - status_code: int
    - - -
    Used for HTTP error responses
    400: Bad request
    404: Not found
    500: Server error
}

BaseModel <|- - InstanceOption
BaseModel <|- - LaunchInstanceRequest
BaseModel <|- - LaunchInstanceResponse
BaseModel <|- - TaskStatus
BaseModel <|- - TerminateInstanceResponse
BaseModel <|- - ErrorResponse

LaunchInstanceRequest "1" - -> "1" LaunchInstanceResponse: creates
LaunchInstanceResponse "1" - -> "1" TaskStatus: polls
TaskStatus "1" - -> "0..1" TerminateInstanceResponse: terminates

note right of BaseModel
  All models inherit from
  pydantic.BaseModel for:
  - Automatic validation
  - Type checking
  - JSON serialization
  - Documentation
  - Schema generation
end note

note right of LaunchInstanceRequest
  **Example:**
  {
    "instance_name": "db-server-01",
    "instance_type": "t3.micro",
    "app_name": "mysql",
    "owner": "admin@example.com"
  }
end note

note right of TaskStatus
  **Example:**
  {
    "task_id": "uuid-here",
    "status": "SUCCESS",
    "instance_id": "i-1234567890abcdef0",
    "public_ip": "54.123.45.67",
    "message": "Instance provisioned successfully"
  }
end note

note right of InstanceOption
  **Example:**
  {
    "instance_types": ["t3.micro", "t3.small"],
    "available_apps": ["nginx", "mysql", "httpd", "mongo"]
  }
end note

note bottom of BaseModel
  Model Inheritance Hierarchy:

  All models implement:
  ✓ Field validation (Pydantic)
  ✓ Type safety
  ✓ JSON serialization
  ✓ OpenAPI documentation
  ✓ Request/response automatic conversion
end note

@enduml

PlantUML version 1.2020.02(Sun Mar 01 05:22:07 EST 2020)
(GPL source distribution)
Java Runtime: OpenJDK Runtime Environment
JVM: OpenJDK 64-Bit Server VM
Java Version: 17.0.17+10-Ubuntu-122.04
Operating System: Linux
Default Encoding: UTF-8
Language: en
Country: US
--></g></svg>