<?xml version="1.0" encoding="UTF-8" standalone="no"?><svg xmlns="http://www.w3.org/2000/svg" xmlns:xlink="http://www.w3.org/1999/xlink" contentScriptType="application/ecmascript" contentStyleType="text/css" height="224px" preserveAspectRatio="none" style="width:258px;height:224px;" version="1.1" viewBox="0 0 258 224" width="258px" zoomAndPan="magnify"><defs><filter height="300%" id="f1u63seibx4eup" width="300%" x="-1" y="-1"><feGaussianBlur result="blurOut" stdDeviation="2.0"/><feColorMatrix in="blurOut" result="blurOut2" type="matrix" values="0 0 0 0 0 0 0 0 0 0 0 0 0 0 0 0 0 0 .4 0"/><feOffset dx="4.0" dy="4.0" in="blurOut2" result="blurOut3"/><feBlend in="SourceGraphic" in2="blurOut3" mode="normal"/></filter></defs><g><!--MD5=[88656e78e5bedad418341b6ececa151e]
cluster AWS--><path d="M30.401,117.465 C34.2325,109.3939 40.6374,109.7174 45.6782,116.1951 C47.8784,109.5351 53.816,108.0924 58.049,114.2301 C61.8142,108.8498 67.3698,107.6776 71.0808,114.2891 C74.8264,108.7704 81.2723,108.6711 84.0594,115.3121 C86.7769,108.8331 92.5236,107.6202 97.206,113.1634 C100.9119,105.3984 108.008,105.4246 112.5939,112.2342 C116.8009,107.0664 122.2595,106.9897 125.2535,113.5442 C128.9528,107.5586 133.9964,107.4759 137.6224,113.619 C142.2408,107.7974 147.3726,106.9851 151.9261,113.6932 C155.286,107.2518 161.115,108.7925 163.937,114.2367 C168.8384,107.6553 173.7136,107.11 179.1391,113.6284 C184.2865,107.347 189.4344,109.5708 192.5012,115.8429 C196.1963,110.8303 200.2506,111.0814 204.0562,115.7105 C208.6938,108.7222 213.39,109.0907 217.8571,115.8812 C223.5347,119.4912 223.9416,125.6259 217.8422,129.2227 C224.1633,132.4238 225.9376,138.2832 219.9232,143.307 C225.5979,147.6335 227.4549,151.5474 220.4905,156.4207 C226.2353,161.1498 226.3278,165.3829 219.5657,169.2076 C225.1404,174.1078 225.8694,178.3365 219.5096,183.1888 C226.1779,188.2039 224.6982,192.7213 218.2861,196.5374 C215.582,202.5404 209.582,203.2229 205.5421,198.0623 C202.3794,205.6502 197.3453,206.4994 191.5138,200.9016 C187.2934,208.344 180.6487,206.3306 177.1674,200.1247 C173.9861,205.2947 170.537,206.0229 165.907,201.8754 C161.638,209.1404 156.2682,209.2359 151.4433,202.4475 C148.4472,209.7015 142.1486,209.6216 137.7051,203.9906 C134.8273,211.005 130.696,210.2615 125.7909,206.1642 C120.618,212.7396 113.9739,210.8574 111.1458,203.6692 C107.2898,210.7674 102.0196,211.5649 97.2793,204.5373 C92.273,210.2672 85.5777,209.3895 83.9631,201.275 C80.885,207.0411 74.4778,206.9668 71.0479,201.6863 C65.5176,207.5742 61.0406,205.3701 58.2675,198.847 C53.9241,205.1461 47.1354,204.3089 44.1993,197.3533 C41.0763,203.4767 35.2251,204.2395 31.0705,198.4944 C25.0948,193.8963 23.781,188.3028 31.554,184.1687 C25.5612,181.0546 25.6011,175.2527 30.8548,171.517 C23.7471,168.2517 23.4718,161.3077 29.2744,156.6683 C22.1423,151.6359 24.4862,146.028 30.9021,142.5584 C25.2986,139.7539 24.464,133.8498 29.952,130.1931 C24.1692,126.3447 24.7786,120.911 30.401,117.465 " fill="#FFFFFF" style="stroke: #000000; stroke-width: 1.5;"/><text fill="#000000" font-family="sans-serif" font-size="14" font-weight="bold" lengthAdjust="spacingAndGlyphs" textLength="36" x="105.5" y="132.9951">AWS</text><!--MD5=[61e5cf66b829728254da7a8d3b4cc66d]
entity EC2--><polygon fill="#FEFECE" filter="url(#f1u63seibx4eup)" points="38,152,48,142,106,142,106,178.2969,96,188.2969,38,188.2969,38,152" style="stroke: #000000; stroke-width: 1.5;"/><line style="stroke: #000000; stroke-width: 1.5;" x1="96" x2="105" y1="152" y2="143"/><line style="stroke: #000000; stroke-width: 1.5;" x1="38" x2="96" y1="152" y2="152"/><line style="stroke: #000000; stroke-width: 1.5;" x1="96" x2="96" y1="152" y2="188.2969"/><text fill="#000000" font-family="sans-serif" font-size="14" lengthAdjust="spacingAndGlyphs" textLength="28" x="53" y="174.9951">EC2</text><!--MD5=[15b96e5c755a000bd49ba47d661d1b11]
entity SES--><polygon fill="#FEFECE" filter="url(#f1u63seibx4eup)" points="141.5,152,151.5,142,208.5,142,208.5,178.2969,198.5,188.2969,141.5,188.2969,141.5,152" style="stroke: #000000; stroke-width: 1.5;"/><line style="stroke: #000000; stroke-width: 1.5;" x1="198.5" x2="207.5" y1="152" y2="143"/><line style="stroke: #000000; stroke-width: 1.5;" x1="141.5" x2="198.5" y1="152" y2="152"/><line style="stroke: #000000; stroke-width: 1.5;" x1="198.5" x2="198.5" y1="152" y2="188.2969"/><text fill="#000000" font-family="sans-serif" font-size="14" lengthAdjust="spacingAndGlyphs" textLength="27" x="156.5" y="174.9951">SES</text><!--MD5=[e2307af040e3f87d22824e7603ca28ec]
entity api--><rect fill="#FEFECE" filter="url(#f1u63seibx4eup)" height="36.2969" style="stroke: #A80036; stroke-width: 1.5;" width="70" x="89" y="8"/><rect fill="#FEFECE" height="5" style="stroke: #A80036; stroke-width: 1.5;" width="10" x="84" y="13"/><rect fill="#FEFECE" height="5" style="stroke: #A80036; stroke-width: 1.5;" width="10" x="84" y="34.2969"/><text fill="#000000" font-family="sans-serif" font-size="14" lengthAdjust="spacingAndGlyphs" textLength="50" x="99" y="30.9951">FastAPI</text><!--MD5=[2ff2acda331d444a71474d3eaaa0a9f6]
link api to EC2--><path d="M88.61,35.97 C69.14,42.91 46.64,54.7 35,74 C22.84,94.18 34.91,119.08 48.41,137.57 " fill="none" id="api-&gt;EC2" style="stroke: #A80036; stroke-width: 1.0;"/><polygon fill="#A80036" points="51.49,141.65,49.2681,132.055,48.4809,137.6569,42.8791,136.8696,51.49,141.65" style="stroke: #A80036; stroke-width: 1.0;"/><text fill="#000000" font-family="sans-serif" font-size="13" lengthAdjust="spacingAndGlyphs" textLength="122" x="36" y="87.0669">Provision Instances</text><!--MD5=[33ab2e3e9a7316bcabb599cac0767bc4]
link api to SES--><path d="M144.77,44.12 C153.15,52.25 162.01,62.66 167,74 C175.73,93.81 177.37,118.43 177.03,136.9 " fill="none" id="api-&gt;SES" style="stroke: #A80036; stroke-width: 1.0;"/><polygon fill="#A80036" points="176.88,141.94,181.1354,133.0579,177.0228,136.942,173.1387,132.8294,176.88,141.94" style="stroke: #A80036; stroke-width: 1.0;"/><text fill="#000000" font-family="sans-serif" font-size="13" lengthAdjust="spacingAndGlyphs" textLength="72" x="174" y="87.0669">Send Email</text><!--MD5=[a06ed74cdc15c5a0d47b880e6516552f]
@startuml

cloud "AWS" {
    node EC2
    node SES
}

component "FastAPI" as api

api - -> EC2: Provision Instances
api - -> SES: Send Email

@enduml

PlantUML version 1.2020.02(Sun Mar 01 05:22:07 EST 2020)
(GPL source distribution)
Java Runtime: OpenJDK Runtime Environment
JVM: OpenJDK 64-Bit Server VM
Java Version: 17.0.17+10-Ubuntu-122.04
Operating System: Linux
Default Encoding: UTF-8
Language: en
Country: US
--></g></svg>