<?xml version="1.0" encoding="UTF-8" standalone="no"?><svg xmlns="http://www.w3.org/2000/svg" xmlns:xlink="http://www.w3.org/1999/xlink" contentScriptType="application/ecmascript" contentStyleType="text/css" height="402px" preserveAspectRatio="none" style="width:575px;height:402px;" version="1.1" viewBox="0 0 575 402" width="575px" zoomAndPan="magnify"><defs><filter height="300%" id="f1bcq7pygo8bu2" width="300%" x="-1" y="-1"><feGaussianBlur result="blurOut" stdDeviation="2.0"/><feColorMatrix in="blurOut" result="blurOut2" type="matrix" values="0 0 0 0 0 0 0 0 0 0 0 0 0 0 0 0 0 0 .4 0"/><feOffset dx="4.0" dy="4.0" in="blurOut2" result="blurOut3"/><feBlend in="SourceGraphic" in2="blurOut3" mode="normal"/></filter></defs><g><line style="stroke: #A80036; stroke-width: 1.0; stroke-dasharray: 5.0,5.0;" x1="33" x2="33" y1="38.2969" y2="362.625"/><line style="stroke: #A80036; stroke-width: 1.0; stroke-dasharray: 5.0,5.0;" x1="144.5" x2="144.5" y1="38.2969" y2="362.625"/><line style="stroke: #A80036; stroke-width: 1.0; stroke-dasharray: 5.0,5.0;" x1="254" x2="254" y1="38.2969" y2="362.625"/><line style="stroke: #A80036; stroke-width: 1.0; stroke-dasharray: 5.0,5.0;" x1="366.5" x2="366.5" y1="38.2969" y2="362.625"/><line style="stroke: #A80036; stroke-width: 1.0; stroke-dasharray: 5.0,5.0;" x1="490" x2="490" y1="38.2969" y2="362.625"/><line style="stroke: #A80036; stroke-width: 1.0; stroke-dasharray: 5.0,5.0;" x1="545" x2="545" y1="38.2969" y2="362.625"/><rect fill="#FEFECE" filter="url(#f1bcq7pygo8bu2)" height="30.2969" style="stroke: #A80036; stroke-width: 1.5;" width="46" x="8" y="3"/><text fill="#000000" font-family="sans-serif" font-size="14" lengthAdjust="spacingAndGlyphs" textLength="32" x="15" y="22.9951">User</text><rect fill="#FEFECE" filter="url(#f1bcq7pygo8bu2)" height="30.2969" style="stroke: #A80036; stroke-width: 1.5;" width="46" x="8" y="361.625"/><text fill="#000000" font-family="sans-serif" font-size="14" lengthAdjust="spacingAndGlyphs" textLength="32" x="15" y="381.6201">User</text><rect fill="#FEFECE" filter="url(#f1bcq7pygo8bu2)" height="30.2969" style="stroke: #A80036; stroke-width: 1.5;" width="35" x="125.5" y="3"/><text fill="#000000" font-family="sans-serif" font-size="14" lengthAdjust="spacingAndGlyphs" textLength="21" x="132.5" y="22.9951">API</text><rect fill="#FEFECE" filter="url(#f1bcq7pygo8bu2)" height="30.2969" style="stroke: #A80036; stroke-width: 1.5;" width="35" x="125.5" y="361.625"/><text fill="#000000" font-family="sans-serif" font-size="14" lengthAdjust="spacingAndGlyphs" textLength="21" x="132.5" y="381.6201">API</text><rect fill="#FEFECE" filter="url(#f1bcq7pygo8bu2)" height="30.2969" style="stroke: #A80036; stroke-width: 1.5;" width="84" x="210" y="3"/><text fill="#000000" font-family="sans-serif" font-size="14" lengthAdjust="spacingAndGlyphs" textLength="70" x="217" y="22.9951">TaskStore</text><rect fill="#FEFECE" filter="url(#f1bcq7pygo8bu2)" height="30.2969" style="stroke: #A80036; stroke-width: 1.5;" width="84" x="210" y="361.625"/><text fill="#000000" font-family="sans-serif" font-size="14" lengthAdjust="spacingAndGlyphs" textLength="70" x="217" y="381.6201">TaskStore</text><rect fill="#FEFECE" filter="url(#f1bcq7pygo8bu2)" height="30.2969" style="stroke: #A80036; stroke-width: 1.5;" width="63" x="333.5" y="3"/><text fill="#000000" font-family="sans-serif" font-size="14" lengthAdjust="spacingAndGlyphs" textLength="49" x="340.5" y="22.9951">Worker</text><rect fill="#FEFECE" filter="url(#f1bcq7pygo8bu2)" height="30.2969" style="stroke: #A80036; stroke-width: 1.5;" width="63" x="333.5" y="361.625"/><text fill="#000000" font-family="sans-serif" font-size="14" lengthAdjust="spacingAndGlyphs" textLength="49" x="340.5" y="381.6201">Worker</text><rect fill="#FEFECE" filter="url(#f1bcq7pygo8bu2)" height="30.2969" style="stroke: #A80036; stroke-width: 1.5;" width="42" x="467" y="3"/><text fill="#000000" font-family="sans-serif" font-size="14" lengthAdjust="spacingAndGlyphs" textLength="28" x="474" y="22.9951">EC2</text><rect fill="#FEFECE" filter="url(#f1bcq7pygo8bu2)" height="30.2969" style="stroke: #A80036; stroke-width: 1.5;" width="42" x="467" y="361.625"/><text fill="#000000" font-family="sans-serif" font-size="14" lengthAdjust="spacingAndGlyphs" textLength="28" x="474" y="381.6201">EC2</text><rect fill="#FEFECE" filter="url(#f1bcq7pygo8bu2)" height="30.2969" style="stroke: #A80036; stroke-width: 1.5;" width="41" x="523" y="3"/><text fill="#000000" font-family="sans-serif" font-size="14" lengthAdjust="spacingAndGlyphs" textLength="27" x="530" y="22.9951">SES</text><rect fill="#FEFECE" filter="url(#f1bcq7pygo8bu2)" height="30.2969" style="stroke: #A80036; stroke-width: 1.5;" width="41" x="523" y="361.625"/><text fill="#000000" font-family="sans-serif" font-size="14" lengthAdjust="spacingAndGlyphs" textLength="27" x="530" y="381.6201">SES</text><polygon fill="#A80036" points="133,65.4297,143,69.4297,133,73.4297,137,69.4297" style="stroke: #A80036; stroke-width: 1.0;"/><line style="stroke: #A80036; stroke-width: 1.0;" x1="33" x2="139" y1="69.4297" y2="69.4297"/><text fill="#000000" font-family="sans-serif" font-size="13" lengthAdjust="spacingAndGlyphs" textLength="84" x="40" y="64.3638">POST /launch</text><line style="stroke: #A80036; stroke-width: 1.0;" x1="145" x2="187" y1="98.5625" y2="98.5625"/><line style="stroke: #A80036; stroke-width: 1.0;" x1="187" x2="187" y1="98.5625" y2="111.5625"/><line style="stroke: #A80036; stroke-width: 1.0;" x1="146" x2="187" y1="111.5625" y2="111.5625"/><polygon fill="#A80036" points="156,107.5625,146,111.5625,156,115.5625,152,111.5625" style="stroke: #A80036; stroke-width: 1.0;"/><text fill="#000000" font-family="sans-serif" font-size="13" lengthAdjust="spacingAndGlyphs" textLength="52" x="152" y="93.4966">Validate</text><polygon fill="#A80036" points="242,136.6953,252,140.6953,242,144.6953,246,140.6953" style="stroke: #A80036; stroke-width: 1.0;"/><line style="stroke: #A80036; stroke-width: 1.0;" x1="145" x2="248" y1="140.6953" y2="140.6953"/><text fill="#000000" font-family="sans-serif" font-size="13" lengthAdjust="spacingAndGlyphs" textLength="85" x="152" y="135.6294">create_task()</text><polygon fill="#A80036" points="156,165.8281,146,169.8281,156,173.8281,152,169.8281" style="stroke: #A80036; stroke-width: 1.0;"/><line style="stroke: #A80036; stroke-width: 1.0; stroke-dasharray: 2.0,2.0;" x1="150" x2="253" y1="169.8281" y2="169.8281"/><text fill="#000000" font-family="sans-serif" font-size="13" lengthAdjust="spacingAndGlyphs" textLength="45" x="162" y="164.7622">task_id</text><polygon fill="#A80036" points="44,194.9609,34,198.9609,44,202.9609,40,198.9609" style="stroke: #A80036; stroke-width: 1.0;"/><line style="stroke: #A80036; stroke-width: 1.0; stroke-dasharray: 2.0,2.0;" x1="38" x2="144" y1="198.9609" y2="198.9609"/><text fill="#000000" font-family="sans-serif" font-size="13" lengthAdjust="spacingAndGlyphs" textLength="88" x="50" y="193.895">202 Accepted</text><polygon fill="#A80036" points="355,224.0938,365,228.0938,355,232.0938,359,228.0938" style="stroke: #A80036; stroke-width: 1.0;"/><line style="stroke: #A80036; stroke-width: 1.0;" x1="145" x2="361" y1="228.0938" y2="228.0938"/><text fill="#000000" font-family="sans-serif" font-size="13" lengthAdjust="spacingAndGlyphs" textLength="137" x="152" y="223.0278">asyncio.create_task()</text><polygon fill="#A80036" points="478,253.2266,488,257.2266,478,261.2266,482,257.2266" style="stroke: #A80036; stroke-width: 1.0;"/><line style="stroke: #A80036; stroke-width: 1.0;" x1="367" x2="484" y1="257.2266" y2="257.2266"/><text fill="#000000" font-family="sans-serif" font-size="13" lengthAdjust="spacingAndGlyphs" textLength="99" x="374" y="252.1606">run_instances()</text><polygon fill="#A80036" points="378,282.3594,368,286.3594,378,290.3594,374,286.3594" style="stroke: #A80036; stroke-width: 1.0;"/><line style="stroke: #A80036; stroke-width: 1.0; stroke-dasharray: 2.0,2.0;" x1="372" x2="489" y1="286.3594" y2="286.3594"/><text fill="#000000" font-family="sans-serif" font-size="13" lengthAdjust="spacingAndGlyphs" textLength="72" x="384" y="281.2935">instance_id</text><polygon fill="#A80036" points="265,311.4922,255,315.4922,265,319.4922,261,315.4922" style="stroke: #A80036; stroke-width: 1.0;"/><line style="stroke: #A80036; stroke-width: 1.0;" x1="259" x2="366" y1="315.4922" y2="315.4922"/><text fill="#000000" font-family="sans-serif" font-size="13" lengthAdjust="spacingAndGlyphs" textLength="89" x="271" y="310.4263">update_task()</text><polygon fill="#A80036" points="533.5,340.625,543.5,344.625,533.5,348.625,537.5,344.625" style="stroke: #A80036; stroke-width: 1.0;"/><line style="stroke: #A80036; stroke-width: 1.0;" x1="367" x2="539.5" y1="344.625" y2="344.625"/><text fill="#000000" font-family="sans-serif" font-size="13" lengthAdjust="spacingAndGlyphs" textLength="83" x="374" y="339.5591">send_email()</text><!--MD5=[957cf51c48e82b541a880f041a2fd6f8]
@startuml
participant User
participant API
participant TaskStore
participant Worker
participant EC2
participant SES

User -> API: POST /launch
API -> API: Validate
API -> TaskStore: create_task()
TaskStore - -> API: task_id
API - -> User: 202 Accepted
API -> Worker: asyncio.create_task()

Worker -> EC2: run_instances()
EC2 - -> Worker: instance_id
Worker -> TaskStore: update_task()
Worker -> SES: send_email()
@enduml

PlantUML version 1.2020.02(Sun Mar 01 05:22:07 EST 2020)
(GPL source distribution)
Java Runtime: OpenJDK Runtime Environment
JVM: OpenJDK 64-Bit Server VM
Java Version: 17.0.17+10-Ubuntu-122.04
Operating System: Linux
Default Encoding: UTF-8
Language: en
Country: US
--></g></svg>